<svg width="319" height="145" viewBox="0 0 319 145" fill="none" xmlns="http://www.w3.org/2000/svg">
<path opacity="0.32" d="M7.99789 120.18C7.46589 120.18 6.98589 120.056 6.55789 119.808C6.13389 119.56 5.79789 119.224 5.54989 118.8C5.30189 118.372 5.17789 117.892 5.17789 117.36V114C5.17789 113.468 5.30189 112.99 5.54989 112.566C5.79789 112.138 6.13389 111.8 6.55789 111.552C6.98589 111.304 7.46589 111.18 7.99789 111.18C8.52989 111.18 9.00789 111.304 9.43189 111.552C9.85989 111.8 10.1979 112.138 10.4459 112.566C10.6939 112.99 10.8179 113.468 10.8179 114V117.36C10.8179 117.892 10.6939 118.372 10.4459 118.8C10.1979 119.224 9.85989 119.56 9.43189 119.808C9.00789 120.056 8.52989 120.18 7.99789 120.18ZM7.99789 119.328C8.35389 119.328 8.67789 119.242 8.96989 119.07C9.26189 118.894 9.49389 118.66 9.66589 118.368C9.83789 118.076 9.92389 117.754 9.92389 117.402V113.958C9.92389 113.602 9.83789 113.278 9.66589 112.986C9.49389 112.694 9.26189 112.462 8.96989 112.29C8.67789 112.114 8.35389 112.026 7.99789 112.026C7.64189 112.026 7.31789 112.114 7.02589 112.29C6.73389 112.462 6.50189 112.694 6.32989 112.986C6.15789 113.278 6.07189 113.602 6.07189 113.958V117.402C6.07189 117.754 6.15789 118.076 6.32989 118.368C6.50189 118.66 6.73389 118.894 7.02589 119.07C7.31789 119.242 7.64189 119.328 7.99789 119.328Z" fill="#F6F6F6"/>
<path opacity="0.32" d="M4.346 68V60.344L2.72 61.322V60.332L4.346 59.36H5.24V68H4.346ZM10.3358 68.18C9.80378 68.18 9.32378 68.056 8.89578 67.808C8.47178 67.56 8.13578 67.224 7.88778 66.8C7.63978 66.372 7.51578 65.892 7.51578 65.36V62C7.51578 61.468 7.63978 60.99 7.88778 60.566C8.13578 60.138 8.47178 59.8 8.89578 59.552C9.32378 59.304 9.80378 59.18 10.3358 59.18C10.8678 59.18 11.3458 59.304 11.7698 59.552C12.1978 59.8 12.5358 60.138 12.7838 60.566C13.0318 60.99 13.1558 61.468 13.1558 62V65.36C13.1558 65.892 13.0318 66.372 12.7838 66.8C12.5358 67.224 12.1978 67.56 11.7698 67.808C11.3458 68.056 10.8678 68.18 10.3358 68.18ZM10.3358 67.328C10.6918 67.328 11.0158 67.242 11.3078 67.07C11.5998 66.894 11.8318 66.66 12.0038 66.368C12.1758 66.076 12.2618 65.754 12.2618 65.402V61.958C12.2618 61.602 12.1758 61.278 12.0038 60.986C11.8318 60.694 11.5998 60.462 11.3078 60.29C11.0158 60.114 10.6918 60.026 10.3358 60.026C9.97978 60.026 9.65578 60.114 9.36378 60.29C9.07178 60.462 8.83978 60.694 8.66778 60.986C8.49578 61.278 8.40978 61.602 8.40978 61.958V65.402C8.40978 65.754 8.49578 66.076 8.66778 66.368C8.83978 66.66 9.07178 66.894 9.36378 67.07C9.65578 67.242 9.97978 67.328 10.3358 67.328Z" fill="#F6F6F6"/>
<path opacity="0.32" d="M1.51602 10.994L1.52202 10.19L5.42802 6.662C5.76402 6.358 5.98602 6.07 6.09402 5.798C6.20602 5.522 6.26202 5.234 6.26202 4.934C6.26202 4.578 6.17802 4.256 6.01002 3.968C5.84202 3.68 5.61602 3.452 5.33202 3.284C5.04802 3.112 4.73002 3.026 4.37802 3.026C4.01002 3.026 3.68202 3.114 3.39402 3.29C3.10602 3.466 2.87802 3.698 2.71002 3.986C2.54602 4.274 2.46602 4.588 2.47002 4.928H1.57002C1.57002 4.404 1.69402 3.934 1.94202 3.518C2.19002 3.102 2.52602 2.776 2.95002 2.54C3.37402 2.3 3.85402 2.18 4.39002 2.18C4.91402 2.18 5.38402 2.304 5.80002 2.552C6.22002 2.796 6.55002 3.128 6.79002 3.548C7.03402 3.964 7.15602 4.428 7.15602 4.94C7.15602 5.3 7.11202 5.618 7.02402 5.894C6.94002 6.166 6.80602 6.42 6.62202 6.656C6.44202 6.888 6.21202 7.128 5.93202 7.376L2.46402 10.508L2.32602 10.148H7.15602V10.994H1.51602ZM11.4198 11.18C10.8878 11.18 10.4078 11.056 9.97977 10.808C9.55577 10.56 9.21977 10.224 8.97177 9.8C8.72377 9.372 8.59977 8.892 8.59977 8.36V5C8.59977 4.468 8.72377 3.99 8.97177 3.566C9.21977 3.138 9.55577 2.8 9.97977 2.552C10.4078 2.304 10.8878 2.18 11.4198 2.18C11.9518 2.18 12.4298 2.304 12.8538 2.552C13.2818 2.8 13.6198 3.138 13.8678 3.566C14.1158 3.99 14.2398 4.468 14.2398 5V8.36C14.2398 8.892 14.1158 9.372 13.8678 9.8C13.6198 10.224 13.2818 10.56 12.8538 10.808C12.4298 11.056 11.9518 11.18 11.4198 11.18ZM11.4198 10.328C11.7758 10.328 12.0998 10.242 12.3918 10.07C12.6838 9.894 12.9158 9.66 13.0878 9.368C13.2598 9.076 13.3458 8.754 13.3458 8.402V4.958C13.3458 4.602 13.2598 4.278 13.0878 3.986C12.9158 3.694 12.6838 3.462 12.3918 3.29C12.0998 3.114 11.7758 3.026 11.4198 3.026C11.0638 3.026 10.7398 3.114 10.4478 3.29C10.1558 3.462 9.92377 3.694 9.75177 3.986C9.57977 4.278 9.49377 4.602 9.49377 4.958V8.402C9.49377 8.754 9.57977 9.076 9.75177 9.368C9.92377 9.66 10.1558 9.894 10.4478 10.07C10.7398 10.242 11.0638 10.328 11.4198 10.328Z" fill="#F6F6F6"/>
<rect opacity="0.08" x="295" y="63" width="1.00002" height="271" rx="0.50001" transform="rotate(90 295 63)" fill="#F6F6F6"/>
<rect opacity="0.08" x="295" y="6" width="1.00002" height="271" rx="0.50001" transform="rotate(90 295 6)" fill="#F6F6F6"/>
<path d="M310.217 19.9591C310.217 19.9591 307.396 33.6111 299.92 36.0917V36.0917C276.896 43.2534 255.947 16.1423 238.916 33.211L228.106 44.045C205.438 66.7629 180.64 54.1851 160.32 29.3447V29.3447C152.784 20.2056 145.368 38.4839 137.893 52.5407C130.397 66.3364 122.941 75.9106 115.465 68.8169C108.03 61.9844 100.513 38.4839 93.0376 45.5775C85.6425 52.4101 78.0859 89.8369 70.8121 103.633C63.2555 117.689 55.8604 108.115 48.3846 103.633C40.8684 98.976 33.4329 98.976 29.594 98.976H25.9571" stroke="#CBFF8C" stroke-width="4" stroke-linecap="round"/>
<path d="M223.664 63.18C222.804 63.18 222.074 62.99 221.474 62.61C220.874 62.23 220.416 61.702 220.1 61.026C219.788 60.35 219.632 59.568 219.632 58.68C219.632 57.792 219.788 57.01 220.1 56.334C220.416 55.658 220.874 55.13 221.474 54.75C222.074 54.37 222.804 54.18 223.664 54.18C224.528 54.18 225.26 54.37 225.86 54.75C226.46 55.13 226.916 55.658 227.228 56.334C227.54 57.01 227.696 57.792 227.696 58.68C227.696 59.568 227.54 60.35 227.228 61.026C226.916 61.702 226.46 62.23 225.86 62.61C225.26 62.99 224.528 63.18 223.664 63.18ZM223.664 62.16C224.308 62.164 224.844 62.02 225.272 61.728C225.704 61.432 226.026 61.022 226.238 60.498C226.454 59.974 226.562 59.368 226.562 58.68C226.562 57.988 226.454 57.382 226.238 56.862C226.026 56.342 225.704 55.936 225.272 55.644C224.844 55.352 224.308 55.204 223.664 55.2C223.02 55.196 222.484 55.34 222.056 55.632C221.632 55.924 221.312 56.332 221.096 56.856C220.88 57.38 220.77 57.988 220.766 58.68C220.762 59.368 220.868 59.972 221.084 60.492C221.3 61.012 221.622 61.42 222.05 61.716C222.482 62.008 223.02 62.156 223.664 62.16ZM230.281 63L228.301 56.514L229.363 56.52L230.809 61.26L232.267 56.52H233.209L234.661 61.26L236.113 56.52H237.169L235.189 63H234.301L232.735 58.074L231.169 63H230.281ZM242.867 63V59.754C242.867 59.446 242.839 59.15 242.783 58.866C242.731 58.582 242.637 58.328 242.501 58.104C242.369 57.876 242.189 57.696 241.961 57.564C241.737 57.432 241.453 57.366 241.109 57.366C240.841 57.366 240.597 57.412 240.377 57.504C240.161 57.592 239.975 57.728 239.819 57.912C239.663 58.096 239.541 58.328 239.453 58.608C239.369 58.884 239.327 59.21 239.327 59.586L238.625 59.37C238.625 58.742 238.737 58.204 238.961 57.756C239.189 57.304 239.507 56.958 239.915 56.718C240.327 56.474 240.811 56.352 241.367 56.352C241.787 56.352 242.145 56.418 242.441 56.55C242.737 56.682 242.983 56.858 243.179 57.078C243.375 57.294 243.529 57.538 243.641 57.81C243.753 58.078 243.831 58.352 243.875 58.632C243.923 58.908 243.947 59.17 243.947 59.418V63H242.867ZM238.247 63V56.52H239.207V58.254H239.327V63H238.247ZM248.527 63V56.166C248.527 55.998 248.535 55.828 248.551 55.656C248.567 55.48 248.603 55.31 248.659 55.146C248.715 54.978 248.807 54.824 248.935 54.684C249.083 54.52 249.245 54.404 249.421 54.336C249.597 54.264 249.775 54.22 249.955 54.204C250.139 54.188 250.313 54.18 250.477 54.18H251.299V55.068H250.537C250.221 55.068 249.985 55.146 249.829 55.302C249.673 55.454 249.595 55.686 249.595 55.998V63H248.527ZM247.429 57.402V56.52H251.299V57.402H247.429ZM252.559 55.374V54.27H253.627V55.374H252.559ZM252.559 63V56.52H253.627V63H252.559ZM255.433 63V56.52H256.387V58.086L256.231 57.882C256.307 57.682 256.405 57.498 256.525 57.33C256.649 57.162 256.787 57.024 256.939 56.916C257.107 56.78 257.297 56.676 257.509 56.604C257.721 56.532 257.937 56.49 258.157 56.478C258.377 56.462 258.583 56.476 258.775 56.52V57.522C258.551 57.462 258.305 57.446 258.037 57.474C257.769 57.502 257.521 57.6 257.293 57.768C257.085 57.916 256.923 58.096 256.807 58.308C256.695 58.52 256.617 58.75 256.573 58.998C256.529 59.242 256.507 59.492 256.507 59.748V63H255.433ZM262.123 63.174C261.351 63.174 260.717 63.006 260.221 62.67C259.729 62.33 259.427 61.856 259.315 61.248L260.407 61.074C260.495 61.426 260.697 61.706 261.013 61.914C261.329 62.118 261.721 62.22 262.189 62.22C262.633 62.22 262.981 62.128 263.233 61.944C263.485 61.76 263.611 61.51 263.611 61.194C263.611 61.01 263.569 60.862 263.485 60.75C263.401 60.634 263.227 60.526 262.963 60.426C262.703 60.326 262.309 60.206 261.781 60.066C261.209 59.914 260.759 59.756 260.431 59.592C260.103 59.428 259.869 59.238 259.729 59.022C259.589 58.806 259.519 58.544 259.519 58.236C259.519 57.856 259.623 57.524 259.831 57.24C260.039 56.952 260.329 56.73 260.701 56.574C261.077 56.418 261.513 56.34 262.009 56.34C262.501 56.34 262.941 56.418 263.329 56.574C263.717 56.73 264.029 56.952 264.265 57.24C264.505 57.524 264.647 57.856 264.691 58.236L263.599 58.434C263.547 58.086 263.379 57.812 263.095 57.612C262.815 57.412 262.453 57.306 262.009 57.294C261.589 57.278 261.247 57.352 260.983 57.516C260.723 57.68 260.593 57.902 260.593 58.182C260.593 58.338 260.641 58.472 260.737 58.584C260.837 58.696 261.019 58.802 261.283 58.902C261.551 59.002 261.939 59.116 262.447 59.244C263.019 59.388 263.469 59.546 263.797 59.718C264.129 59.886 264.365 60.086 264.505 60.318C264.645 60.546 264.715 60.828 264.715 61.164C264.715 61.788 264.485 62.28 264.025 62.64C263.565 62.996 262.931 63.174 262.123 63.174ZM269.656 63C269.272 63.076 268.892 63.106 268.516 63.09C268.144 63.078 267.812 63.004 267.52 62.868C267.228 62.728 267.006 62.512 266.854 62.22C266.726 61.964 266.656 61.706 266.644 61.446C266.636 61.182 266.632 60.884 266.632 60.552V54.72H267.7V60.504C267.7 60.768 267.702 60.994 267.706 61.182C267.714 61.37 267.756 61.532 267.832 61.668C267.976 61.924 268.204 62.074 268.516 62.118C268.832 62.162 269.212 62.15 269.656 62.082V63ZM265.318 57.402V56.52H269.656V57.402H265.318ZM276.35 63.18C275.742 63.18 275.23 63.03 274.814 62.73C274.398 62.426 274.082 62.016 273.866 61.5C273.654 60.98 273.548 60.398 273.548 59.754C273.548 59.102 273.654 58.518 273.866 58.002C274.082 57.486 274.398 57.08 274.814 56.784C275.234 56.488 275.748 56.34 276.356 56.34C276.956 56.34 277.472 56.49 277.904 56.79C278.34 57.086 278.674 57.492 278.906 58.008C279.138 58.524 279.254 59.106 279.254 59.754C279.254 60.402 279.138 60.984 278.906 61.5C278.674 62.016 278.34 62.426 277.904 62.73C277.472 63.03 276.954 63.18 276.35 63.18ZM273.368 65.88V56.52H274.322V61.29H274.442V65.88H273.368ZM276.218 62.202C276.646 62.202 277 62.094 277.28 61.878C277.56 61.662 277.77 61.37 277.91 61.002C278.05 60.63 278.12 60.214 278.12 59.754C278.12 59.298 278.05 58.886 277.91 58.518C277.774 58.15 277.562 57.858 277.274 57.642C276.99 57.426 276.628 57.318 276.188 57.318C275.768 57.318 275.42 57.422 275.144 57.63C274.868 57.834 274.662 58.12 274.526 58.488C274.39 58.852 274.322 59.274 274.322 59.754C274.322 60.226 274.388 60.648 274.52 61.02C274.656 61.388 274.864 61.678 275.144 61.89C275.424 62.098 275.782 62.202 276.218 62.202ZM280.569 63V56.52H281.523V58.086L281.367 57.882C281.443 57.682 281.541 57.498 281.661 57.33C281.785 57.162 281.923 57.024 282.075 56.916C282.243 56.78 282.433 56.676 282.645 56.604C282.857 56.532 283.073 56.49 283.293 56.478C283.513 56.462 283.719 56.476 283.911 56.52V57.522C283.687 57.462 283.441 57.446 283.173 57.474C282.905 57.502 282.657 57.6 282.429 57.768C282.221 57.916 282.059 58.096 281.943 58.308C281.831 58.52 281.753 58.75 281.709 58.998C281.665 59.242 281.643 59.492 281.643 59.748V63H280.569ZM287.689 63.18C287.045 63.18 286.489 63.034 286.021 62.742C285.557 62.45 285.199 62.046 284.947 61.53C284.695 61.014 284.569 60.422 284.569 59.754C284.569 59.074 284.697 58.478 284.953 57.966C285.209 57.454 285.571 57.056 286.039 56.772C286.507 56.484 287.057 56.34 287.689 56.34C288.337 56.34 288.895 56.486 289.363 56.778C289.831 57.066 290.189 57.468 290.437 57.984C290.689 58.496 290.815 59.086 290.815 59.754C290.815 60.43 290.689 61.026 290.437 61.542C290.185 62.054 289.825 62.456 289.357 62.748C288.889 63.036 288.333 63.18 287.689 63.18ZM287.689 62.166C288.361 62.166 288.861 61.942 289.189 61.494C289.517 61.046 289.681 60.466 289.681 59.754C289.681 59.022 289.515 58.44 289.183 58.008C288.851 57.572 288.353 57.354 287.689 57.354C287.237 57.354 286.865 57.456 286.573 57.66C286.281 57.864 286.063 58.146 285.919 58.506C285.775 58.866 285.703 59.282 285.703 59.754C285.703 60.482 285.871 61.066 286.207 61.506C286.543 61.946 287.037 62.166 287.689 62.166ZM294.68 63.18C294.076 63.18 293.558 63.03 293.126 62.73C292.694 62.426 292.36 62.016 292.124 61.5C291.892 60.984 291.776 60.402 291.776 59.754C291.776 59.106 291.892 58.524 292.124 58.008C292.36 57.492 292.694 57.086 293.126 56.79C293.558 56.49 294.074 56.34 294.674 56.34C295.286 56.34 295.8 56.488 296.216 56.784C296.632 57.08 296.946 57.486 297.158 58.002C297.374 58.518 297.482 59.102 297.482 59.754C297.482 60.398 297.374 60.98 297.158 61.5C296.946 62.016 296.632 62.426 296.216 62.73C295.8 63.03 295.288 63.18 294.68 63.18ZM294.812 62.202C295.248 62.202 295.606 62.098 295.886 61.89C296.166 61.678 296.372 61.388 296.504 61.02C296.64 60.648 296.708 60.226 296.708 59.754C296.708 59.274 296.64 58.852 296.504 58.488C296.372 58.12 296.168 57.834 295.892 57.63C295.616 57.422 295.266 57.318 294.842 57.318C294.402 57.318 294.038 57.426 293.75 57.642C293.466 57.858 293.254 58.15 293.114 58.518C292.978 58.886 292.91 59.298 292.91 59.754C292.91 60.214 292.98 60.63 293.12 61.002C293.26 61.37 293.47 61.662 293.75 61.878C294.034 62.094 294.388 62.202 294.812 62.202ZM296.708 63V58.23H296.588V54.36H297.662V63H296.708ZM301.803 63.168C301.387 63.168 301.029 63.102 300.729 62.97C300.433 62.838 300.187 62.662 299.991 62.442C299.795 62.222 299.641 61.978 299.529 61.71C299.417 61.442 299.337 61.168 299.289 60.888C299.245 60.608 299.223 60.346 299.223 60.102V56.52H300.303V59.766C300.303 60.07 300.331 60.364 300.387 60.648C300.443 60.932 300.537 61.188 300.669 61.416C300.805 61.644 300.985 61.824 301.209 61.956C301.437 62.088 301.721 62.154 302.061 62.154C302.329 62.154 302.573 62.108 302.793 62.016C303.013 61.924 303.201 61.788 303.357 61.608C303.513 61.424 303.633 61.192 303.717 60.912C303.801 60.632 303.843 60.306 303.843 59.934L304.545 60.15C304.545 60.774 304.431 61.312 304.203 61.764C303.979 62.216 303.661 62.564 303.249 62.808C302.841 63.048 302.359 63.168 301.803 63.168ZM303.963 63V61.266H303.843V56.52H304.917V63H303.963ZM309.327 63.18C308.671 63.18 308.113 63.034 307.653 62.742C307.197 62.446 306.849 62.04 306.609 61.524C306.369 61.008 306.245 60.42 306.237 59.76C306.245 59.084 306.371 58.49 306.615 57.978C306.863 57.462 307.217 57.06 307.677 56.772C308.137 56.484 308.691 56.34 309.339 56.34C310.023 56.34 310.611 56.508 311.103 56.844C311.599 57.18 311.931 57.64 312.099 58.224L311.043 58.542C310.907 58.166 310.685 57.874 310.377 57.666C310.073 57.458 309.723 57.354 309.327 57.354C308.883 57.354 308.517 57.458 308.229 57.666C307.941 57.87 307.727 58.154 307.587 58.518C307.447 58.878 307.375 59.292 307.371 59.76C307.379 60.48 307.545 61.062 307.869 61.506C308.197 61.946 308.683 62.166 309.327 62.166C309.751 62.166 310.103 62.07 310.383 61.878C310.663 61.682 310.875 61.4 311.019 61.032L312.099 61.314C311.875 61.918 311.525 62.38 311.049 62.7C310.573 63.02 309.999 63.18 309.327 63.18ZM316.941 63C316.557 63.076 316.177 63.106 315.801 63.09C315.429 63.078 315.097 63.004 314.805 62.868C314.513 62.728 314.291 62.512 314.139 62.22C314.011 61.964 313.941 61.706 313.929 61.446C313.921 61.182 313.917 60.884 313.917 60.552V54.72H314.985V60.504C314.985 60.768 314.987 60.994 314.991 61.182C314.999 61.37 315.041 61.532 315.117 61.668C315.261 61.924 315.489 62.074 315.801 62.118C316.117 62.162 316.497 62.15 316.941 62.082V63ZM312.603 57.402V56.52H316.941V57.402H312.603Z" fill="white"/>
<circle cx="201" cy="58" r="7" fill="#10151D" stroke="white" stroke-width="4"/>
<path opacity="0.32" d="M16.7113 141.994L16.7173 141.034L20.5513 137.584C20.8713 137.296 21.0853 137.024 21.1933 136.768C21.3053 136.508 21.3613 136.242 21.3613 135.97C21.3613 135.638 21.2853 135.338 21.1333 135.07C20.9813 134.802 20.7733 134.59 20.5093 134.434C20.2493 134.278 19.9533 134.2 19.6213 134.2C19.2773 134.2 18.9713 134.282 18.7033 134.446C18.4353 134.606 18.2233 134.82 18.0673 135.088C17.9153 135.356 17.8413 135.648 17.8453 135.964H16.7533C16.7533 135.42 16.8793 134.94 17.1313 134.524C17.3833 134.104 17.7253 133.776 18.1573 133.54C18.5933 133.3 19.0873 133.18 19.6393 133.18C20.1753 133.18 20.6553 133.304 21.0793 133.552C21.5033 133.796 21.8373 134.13 22.0813 134.554C22.3293 134.974 22.4533 135.45 22.4533 135.982C22.4533 136.358 22.4053 136.684 22.3093 136.96C22.2173 137.236 22.0733 137.492 21.8773 137.728C21.6813 137.96 21.4353 138.208 21.1393 138.472L17.9533 141.334L17.8153 140.974H22.4533V141.994H16.7113ZM26.8048 142.18C26.2448 142.18 25.7448 142.054 25.3048 141.802C24.8688 141.546 24.5228 141.2 24.2668 140.764C24.0148 140.324 23.8888 139.824 23.8888 139.264V136.096C23.8888 135.536 24.0148 135.036 24.2668 134.596C24.5228 134.156 24.8688 133.81 25.3048 133.558C25.7448 133.306 26.2448 133.18 26.8048 133.18C27.3648 133.18 27.8648 133.306 28.3048 133.558C28.7448 133.81 29.0908 134.156 29.3428 134.596C29.5948 135.036 29.7208 135.536 29.7208 136.096V139.264C29.7208 139.824 29.5948 140.324 29.3428 140.764C29.0908 141.2 28.7448 141.546 28.3048 141.802C27.8648 142.054 27.3648 142.18 26.8048 142.18ZM26.8048 141.154C27.1448 141.154 27.4528 141.072 27.7288 140.908C28.0048 140.744 28.2248 140.524 28.3888 140.248C28.5528 139.968 28.6348 139.66 28.6348 139.324V136.03C28.6348 135.69 28.5528 135.382 28.3888 135.106C28.2248 134.83 28.0048 134.61 27.7288 134.446C27.4528 134.282 27.1448 134.2 26.8048 134.2C26.4688 134.2 26.1608 134.282 25.8808 134.446C25.6048 134.61 25.3848 134.83 25.2208 135.106C25.0568 135.382 24.9748 135.69 24.9748 136.03V139.324C24.9748 139.66 25.0568 139.968 25.2208 140.248C25.3848 140.524 25.6048 140.744 25.8808 140.908C26.1608 141.072 26.4688 141.154 26.8048 141.154ZM32.9065 142V134.542L31.2805 135.526V134.332L32.9065 133.36H33.9925V142H32.9065ZM39.2215 142.18C38.6735 142.18 38.1755 142.048 37.7275 141.784C37.2835 141.52 36.9295 141.16 36.6655 140.704C36.4055 140.244 36.2755 139.726 36.2755 139.15V136.276C36.2755 135.672 36.4055 135.138 36.6655 134.674C36.9295 134.206 37.2895 133.842 37.7455 133.582C38.2055 133.318 38.7295 133.186 39.3175 133.186C39.7935 133.186 40.2355 133.284 40.6435 133.48C41.0555 133.672 41.4015 133.95 41.6815 134.314L40.8835 135.022C40.7115 134.77 40.4875 134.57 40.2115 134.422C39.9355 134.274 39.6375 134.2 39.3175 134.2C38.9375 134.2 38.5995 134.292 38.3035 134.476C38.0115 134.656 37.7815 134.896 37.6135 135.196C37.4455 135.492 37.3615 135.812 37.3615 136.156V137.89L37.1275 137.626C37.3795 137.266 37.6995 136.978 38.0875 136.762C38.4755 136.546 38.8955 136.438 39.3475 136.438C39.8835 136.438 40.3635 136.564 40.7875 136.816C41.2155 137.068 41.5515 137.41 41.7955 137.842C42.0435 138.27 42.1675 138.752 42.1675 139.288C42.1675 139.824 42.0335 140.31 41.7655 140.746C41.4975 141.182 41.1395 141.53 40.6915 141.79C40.2475 142.05 39.7575 142.18 39.2215 142.18ZM39.2215 141.148C39.5655 141.148 39.8795 141.066 40.1635 140.902C40.4475 140.734 40.6715 140.51 40.8355 140.23C41.0035 139.946 41.0875 139.632 41.0875 139.288C41.0875 138.944 41.0035 138.63 40.8355 138.346C40.6715 138.062 40.4475 137.838 40.1635 137.674C39.8835 137.506 39.5715 137.422 39.2275 137.422C38.8835 137.422 38.5695 137.506 38.2855 137.674C38.0055 137.838 37.7815 138.062 37.6135 138.346C37.4455 138.63 37.3615 138.944 37.3615 139.288C37.3615 139.628 37.4435 139.94 37.6075 140.224C37.7755 140.504 37.9995 140.728 38.2795 140.896C38.5635 141.064 38.8775 141.148 39.2215 141.148Z" fill="#F6F6F6"/>
<path opacity="0.32" d="M99.5596 141.994L99.5656 141.034L103.4 137.584C103.72 137.296 103.934 137.024 104.042 136.768C104.154 136.508 104.21 136.242 104.21 135.97C104.21 135.638 104.134 135.338 103.982 135.07C103.83 134.802 103.622 134.59 103.358 134.434C103.098 134.278 102.802 134.2 102.47 134.2C102.126 134.2 101.82 134.282 101.552 134.446C101.284 134.606 101.072 134.82 100.916 135.088C100.764 135.356 100.69 135.648 100.694 135.964H99.6016C99.6016 135.42 99.7276 134.94 99.9796 134.524C100.232 134.104 100.574 133.776 101.006 133.54C101.442 133.3 101.936 133.18 102.488 133.18C103.024 133.18 103.504 133.304 103.928 133.552C104.352 133.796 104.686 134.13 104.93 134.554C105.178 134.974 105.302 135.45 105.302 135.982C105.302 136.358 105.254 136.684 105.158 136.96C105.066 137.236 104.922 137.492 104.726 137.728C104.53 137.96 104.284 138.208 103.988 138.472L100.802 141.334L100.664 140.974H105.302V141.994H99.5596ZM109.653 142.18C109.093 142.18 108.593 142.054 108.153 141.802C107.717 141.546 107.371 141.2 107.115 140.764C106.863 140.324 106.737 139.824 106.737 139.264V136.096C106.737 135.536 106.863 135.036 107.115 134.596C107.371 134.156 107.717 133.81 108.153 133.558C108.593 133.306 109.093 133.18 109.653 133.18C110.213 133.18 110.713 133.306 111.153 133.558C111.593 133.81 111.939 134.156 112.191 134.596C112.443 135.036 112.569 135.536 112.569 136.096V139.264C112.569 139.824 112.443 140.324 112.191 140.764C111.939 141.2 111.593 141.546 111.153 141.802C110.713 142.054 110.213 142.18 109.653 142.18ZM109.653 141.154C109.993 141.154 110.301 141.072 110.577 140.908C110.853 140.744 111.073 140.524 111.237 140.248C111.401 139.968 111.483 139.66 111.483 139.324V136.03C111.483 135.69 111.401 135.382 111.237 135.106C111.073 134.83 110.853 134.61 110.577 134.446C110.301 134.282 109.993 134.2 109.653 134.2C109.317 134.2 109.009 134.282 108.729 134.446C108.453 134.61 108.233 134.83 108.069 135.106C107.905 135.382 107.823 135.69 107.823 136.03V139.324C107.823 139.66 107.905 139.968 108.069 140.248C108.233 140.524 108.453 140.744 108.729 140.908C109.009 141.072 109.317 141.154 109.653 141.154ZM115.755 142V134.542L114.129 135.526V134.332L115.755 133.36H116.841V142H115.755ZM121.824 142.18C121.272 142.18 120.784 142.07 120.36 141.85C119.936 141.626 119.604 141.316 119.364 140.92C119.124 140.524 119.004 140.062 119.004 139.534C119.004 139.018 119.126 138.552 119.37 138.136C119.618 137.72 119.99 137.4 120.486 137.176L120.468 137.566C120.064 137.37 119.754 137.094 119.538 136.738C119.322 136.378 119.214 135.98 119.214 135.544C119.214 135.056 119.326 134.636 119.55 134.284C119.774 133.932 120.082 133.66 120.474 133.468C120.866 133.276 121.316 133.18 121.824 133.18C122.332 133.18 122.782 133.276 123.174 133.468C123.566 133.66 123.874 133.932 124.098 134.284C124.322 134.636 124.434 135.056 124.434 135.544C124.434 135.98 124.332 136.376 124.128 136.732C123.924 137.084 123.61 137.362 123.186 137.566L123.162 137.182C123.658 137.398 124.03 137.716 124.278 138.136C124.53 138.552 124.656 139.018 124.656 139.534C124.656 140.062 124.534 140.524 124.29 140.92C124.05 141.316 123.716 141.626 123.288 141.85C122.864 142.07 122.376 142.18 121.824 142.18ZM121.824 141.16C122.328 141.16 122.736 141.022 123.048 140.746C123.364 140.466 123.522 140.062 123.522 139.534C123.522 139.002 123.366 138.598 123.054 138.322C122.746 138.042 122.336 137.902 121.824 137.902C121.316 137.902 120.906 138.042 120.594 138.322C120.286 138.598 120.132 139.002 120.132 139.534C120.132 140.062 120.288 140.466 120.6 140.746C120.912 141.022 121.32 141.16 121.824 141.16ZM121.824 136.876C122.264 136.876 122.62 136.766 122.892 136.546C123.164 136.322 123.3 135.988 123.3 135.544C123.3 135.1 123.164 134.768 122.892 134.548C122.62 134.324 122.264 134.212 121.824 134.212C121.388 134.212 121.032 134.324 120.756 134.548C120.484 134.768 120.348 135.1 120.348 135.544C120.348 135.988 120.484 136.322 120.756 136.546C121.032 136.766 121.388 136.876 121.824 136.876Z" fill="#F6F6F6"/>
<path opacity="0.32" d="M181.984 141.994L181.99 141.034L185.824 137.584C186.144 137.296 186.358 137.024 186.466 136.768C186.578 136.508 186.634 136.242 186.634 135.97C186.634 135.638 186.558 135.338 186.406 135.07C186.254 134.802 186.046 134.59 185.782 134.434C185.522 134.278 185.226 134.2 184.894 134.2C184.55 134.2 184.244 134.282 183.976 134.446C183.708 134.606 183.496 134.82 183.34 135.088C183.188 135.356 183.114 135.648 183.118 135.964H182.026C182.026 135.42 182.152 134.94 182.404 134.524C182.656 134.104 182.998 133.776 183.43 133.54C183.866 133.3 184.36 133.18 184.912 133.18C185.448 133.18 185.928 133.304 186.352 133.552C186.776 133.796 187.11 134.13 187.354 134.554C187.602 134.974 187.726 135.45 187.726 135.982C187.726 136.358 187.678 136.684 187.582 136.96C187.49 137.236 187.346 137.492 187.15 137.728C186.954 137.96 186.708 138.208 186.412 138.472L183.226 141.334L183.088 140.974H187.726V141.994H181.984ZM192.078 142.18C191.518 142.18 191.018 142.054 190.578 141.802C190.142 141.546 189.796 141.2 189.54 140.764C189.288 140.324 189.162 139.824 189.162 139.264V136.096C189.162 135.536 189.288 135.036 189.54 134.596C189.796 134.156 190.142 133.81 190.578 133.558C191.018 133.306 191.518 133.18 192.078 133.18C192.638 133.18 193.138 133.306 193.578 133.558C194.018 133.81 194.364 134.156 194.616 134.596C194.868 135.036 194.994 135.536 194.994 136.096V139.264C194.994 139.824 194.868 140.324 194.616 140.764C194.364 141.2 194.018 141.546 193.578 141.802C193.138 142.054 192.638 142.18 192.078 142.18ZM192.078 141.154C192.418 141.154 192.726 141.072 193.002 140.908C193.278 140.744 193.498 140.524 193.662 140.248C193.826 139.968 193.908 139.66 193.908 139.324V136.03C193.908 135.69 193.826 135.382 193.662 135.106C193.498 134.83 193.278 134.61 193.002 134.446C192.726 134.282 192.418 134.2 192.078 134.2C191.742 134.2 191.434 134.282 191.154 134.446C190.878 134.61 190.658 134.83 190.494 135.106C190.33 135.382 190.248 135.69 190.248 136.03V139.324C190.248 139.66 190.33 139.968 190.494 140.248C190.658 140.524 190.878 140.744 191.154 140.908C191.434 141.072 191.742 141.154 192.078 141.154ZM196.433 141.994L196.439 141.034L200.273 137.584C200.593 137.296 200.807 137.024 200.915 136.768C201.027 136.508 201.083 136.242 201.083 135.97C201.083 135.638 201.007 135.338 200.855 135.07C200.703 134.802 200.495 134.59 200.231 134.434C199.971 134.278 199.675 134.2 199.343 134.2C198.999 134.2 198.693 134.282 198.425 134.446C198.157 134.606 197.945 134.82 197.789 135.088C197.637 135.356 197.563 135.648 197.567 135.964H196.475C196.475 135.42 196.601 134.94 196.853 134.524C197.105 134.104 197.447 133.776 197.879 133.54C198.315 133.3 198.809 133.18 199.361 133.18C199.897 133.18 200.377 133.304 200.801 133.552C201.225 133.796 201.559 134.13 201.803 134.554C202.051 134.974 202.175 135.45 202.175 135.982C202.175 136.358 202.127 136.684 202.031 136.96C201.939 137.236 201.795 137.492 201.599 137.728C201.403 137.96 201.157 138.208 200.861 138.472L197.675 141.334L197.537 140.974H202.175V141.994H196.433ZM206.527 142.18C205.967 142.18 205.467 142.054 205.027 141.802C204.591 141.546 204.245 141.2 203.989 140.764C203.737 140.324 203.611 139.824 203.611 139.264V136.096C203.611 135.536 203.737 135.036 203.989 134.596C204.245 134.156 204.591 133.81 205.027 133.558C205.467 133.306 205.967 133.18 206.527 133.18C207.087 133.18 207.587 133.306 208.027 133.558C208.467 133.81 208.813 134.156 209.065 134.596C209.317 135.036 209.443 135.536 209.443 136.096V139.264C209.443 139.824 209.317 140.324 209.065 140.764C208.813 141.2 208.467 141.546 208.027 141.802C207.587 142.054 207.087 142.18 206.527 142.18ZM206.527 141.154C206.867 141.154 207.175 141.072 207.451 140.908C207.727 140.744 207.947 140.524 208.111 140.248C208.275 139.968 208.357 139.66 208.357 139.324V136.03C208.357 135.69 208.275 135.382 208.111 135.106C207.947 134.83 207.727 134.61 207.451 134.446C207.175 134.282 206.867 134.2 206.527 134.2C206.191 134.2 205.883 134.282 205.603 134.446C205.327 134.61 205.107 134.83 204.943 135.106C204.779 135.382 204.697 135.69 204.697 136.03V139.324C204.697 139.66 204.779 139.968 204.943 140.248C205.107 140.524 205.327 140.744 205.603 140.908C205.883 141.072 206.191 141.154 206.527 141.154Z" fill="#F6F6F6"/>
<path opacity="0.32" d="M266.938 141.994L266.944 141.034L270.778 137.584C271.098 137.296 271.312 137.024 271.42 136.768C271.532 136.508 271.588 136.242 271.588 135.97C271.588 135.638 271.512 135.338 271.36 135.07C271.208 134.802 271 134.59 270.736 134.434C270.476 134.278 270.18 134.2 269.848 134.2C269.504 134.2 269.198 134.282 268.93 134.446C268.662 134.606 268.45 134.82 268.294 135.088C268.142 135.356 268.068 135.648 268.072 135.964H266.98C266.98 135.42 267.106 134.94 267.358 134.524C267.61 134.104 267.952 133.776 268.384 133.54C268.82 133.3 269.314 133.18 269.866 133.18C270.402 133.18 270.882 133.304 271.306 133.552C271.73 133.796 272.064 134.13 272.308 134.554C272.556 134.974 272.68 135.45 272.68 135.982C272.68 136.358 272.632 136.684 272.536 136.96C272.444 137.236 272.3 137.492 272.104 137.728C271.908 137.96 271.662 138.208 271.366 138.472L268.18 141.334L268.042 140.974H272.68V141.994H266.938ZM277.031 142.18C276.471 142.18 275.971 142.054 275.531 141.802C275.095 141.546 274.749 141.2 274.493 140.764C274.241 140.324 274.115 139.824 274.115 139.264V136.096C274.115 135.536 274.241 135.036 274.493 134.596C274.749 134.156 275.095 133.81 275.531 133.558C275.971 133.306 276.471 133.18 277.031 133.18C277.591 133.18 278.091 133.306 278.531 133.558C278.971 133.81 279.317 134.156 279.569 134.596C279.821 135.036 279.947 135.536 279.947 136.096V139.264C279.947 139.824 279.821 140.324 279.569 140.764C279.317 141.2 278.971 141.546 278.531 141.802C278.091 142.054 277.591 142.18 277.031 142.18ZM277.031 141.154C277.371 141.154 277.679 141.072 277.955 140.908C278.231 140.744 278.451 140.524 278.615 140.248C278.779 139.968 278.861 139.66 278.861 139.324V136.03C278.861 135.69 278.779 135.382 278.615 135.106C278.451 134.83 278.231 134.61 277.955 134.446C277.679 134.282 277.371 134.2 277.031 134.2C276.695 134.2 276.387 134.282 276.107 134.446C275.831 134.61 275.611 134.83 275.447 135.106C275.283 135.382 275.201 135.69 275.201 136.03V139.324C275.201 139.66 275.283 139.968 275.447 140.248C275.611 140.524 275.831 140.744 276.107 140.908C276.387 141.072 276.695 141.154 277.031 141.154ZM281.387 141.994L281.393 141.034L285.227 137.584C285.547 137.296 285.761 137.024 285.869 136.768C285.981 136.508 286.037 136.242 286.037 135.97C286.037 135.638 285.961 135.338 285.809 135.07C285.657 134.802 285.449 134.59 285.185 134.434C284.925 134.278 284.629 134.2 284.297 134.2C283.953 134.2 283.647 134.282 283.379 134.446C283.111 134.606 282.899 134.82 282.743 135.088C282.591 135.356 282.517 135.648 282.521 135.964H281.429C281.429 135.42 281.555 134.94 281.807 134.524C282.059 134.104 282.401 133.776 282.833 133.54C283.269 133.3 283.763 133.18 284.315 133.18C284.851 133.18 285.331 133.304 285.755 133.552C286.179 133.796 286.513 134.13 286.757 134.554C287.005 134.974 287.129 135.45 287.129 135.982C287.129 136.358 287.081 136.684 286.985 136.96C286.893 137.236 286.749 137.492 286.553 137.728C286.357 137.96 286.111 138.208 285.815 138.472L282.629 141.334L282.491 140.974H287.129V141.994H281.387ZM288.325 141.994L288.331 141.034L292.165 137.584C292.485 137.296 292.699 137.024 292.807 136.768C292.919 136.508 292.975 136.242 292.975 135.97C292.975 135.638 292.899 135.338 292.747 135.07C292.595 134.802 292.387 134.59 292.123 134.434C291.863 134.278 291.567 134.2 291.235 134.2C290.891 134.2 290.585 134.282 290.317 134.446C290.049 134.606 289.837 134.82 289.681 135.088C289.529 135.356 289.455 135.648 289.459 135.964H288.367C288.367 135.42 288.493 134.94 288.745 134.524C288.997 134.104 289.339 133.776 289.771 133.54C290.207 133.3 290.701 133.18 291.253 133.18C291.789 133.18 292.269 133.304 292.693 133.552C293.117 133.796 293.451 134.13 293.695 134.554C293.943 134.974 294.067 135.45 294.067 135.982C294.067 136.358 294.019 136.684 293.923 136.96C293.831 137.236 293.687 137.492 293.491 137.728C293.295 137.96 293.049 138.208 292.753 138.472L289.567 141.334L289.429 140.974H294.067V141.994H288.325Z" fill="#F6F6F6"/>
</svg>
