<svg width="544" height="170" viewBox="0 0 544 170" fill="none" xmlns="http://www.w3.org/2000/svg">
<path opacity="0.32" d="M13.9979 139.18C13.4659 139.18 12.9859 139.056 12.5579 138.808C12.1339 138.56 11.7979 138.224 11.5499 137.8C11.3019 137.372 11.1779 136.892 11.1779 136.36V133C11.1779 132.468 11.3019 131.99 11.5499 131.566C11.7979 131.138 12.1339 130.8 12.5579 130.552C12.9859 130.304 13.4659 130.18 13.9979 130.18C14.5299 130.18 15.0079 130.304 15.4319 130.552C15.8599 130.8 16.1979 131.138 16.4459 131.566C16.6939 131.99 16.8179 132.468 16.8179 133V136.36C16.8179 136.892 16.6939 137.372 16.4459 137.8C16.1979 138.224 15.8599 138.56 15.4319 138.808C15.0079 139.056 14.5299 139.18 13.9979 139.18ZM13.9979 138.328C14.3539 138.328 14.6779 138.242 14.9699 138.07C15.2619 137.894 15.4939 137.66 15.6659 137.368C15.8379 137.076 15.9239 136.754 15.9239 136.402V132.958C15.9239 132.602 15.8379 132.278 15.6659 131.986C15.4939 131.694 15.2619 131.462 14.9699 131.29C14.6779 131.114 14.3539 131.026 13.9979 131.026C13.6419 131.026 13.3179 131.114 13.0259 131.29C12.7339 131.462 12.5019 131.694 12.3299 131.986C12.1579 132.278 12.0719 132.602 12.0719 132.958V136.402C12.0719 136.754 12.1579 137.076 12.3299 137.368C12.5019 137.66 12.7339 137.894 13.0259 138.07C13.3179 138.242 13.6419 138.328 13.9979 138.328Z" fill="#F6F6F6"/>
<path opacity="0.32" d="M10.346 87V79.344L8.72 80.322V79.332L10.346 78.36H11.24V87H10.346ZM16.3358 87.18C15.8038 87.18 15.3238 87.056 14.8958 86.808C14.4718 86.56 14.1358 86.224 13.8878 85.8C13.6398 85.372 13.5158 84.892 13.5158 84.36V81C13.5158 80.468 13.6398 79.99 13.8878 79.566C14.1358 79.138 14.4718 78.8 14.8958 78.552C15.3238 78.304 15.8038 78.18 16.3358 78.18C16.8678 78.18 17.3458 78.304 17.7698 78.552C18.1978 78.8 18.5358 79.138 18.7838 79.566C19.0318 79.99 19.1558 80.468 19.1558 81V84.36C19.1558 84.892 19.0318 85.372 18.7838 85.8C18.5358 86.224 18.1978 86.56 17.7698 86.808C17.3458 87.056 16.8678 87.18 16.3358 87.18ZM16.3358 86.328C16.6918 86.328 17.0158 86.242 17.3078 86.07C17.5998 85.894 17.8318 85.66 18.0038 85.368C18.1758 85.076 18.2618 84.754 18.2618 84.402V80.958C18.2618 80.602 18.1758 80.278 18.0038 79.986C17.8318 79.694 17.5998 79.462 17.3078 79.29C17.0158 79.114 16.6918 79.026 16.3358 79.026C15.9798 79.026 15.6558 79.114 15.3638 79.29C15.0718 79.462 14.8398 79.694 14.6678 79.986C14.4958 80.278 14.4098 80.602 14.4098 80.958V84.402C14.4098 84.754 14.4958 85.076 14.6678 85.368C14.8398 85.66 15.0718 85.894 15.3638 86.07C15.6558 86.242 15.9798 86.328 16.3358 86.328Z" fill="#F6F6F6"/>
<path opacity="0.32" d="M7.51602 29.994L7.52202 29.19L11.428 25.662C11.764 25.358 11.986 25.07 12.094 24.798C12.206 24.522 12.262 24.234 12.262 23.934C12.262 23.578 12.178 23.256 12.01 22.968C11.842 22.68 11.616 22.452 11.332 22.284C11.048 22.112 10.73 22.026 10.378 22.026C10.01 22.026 9.68202 22.114 9.39402 22.29C9.10602 22.466 8.87802 22.698 8.71002 22.986C8.54602 23.274 8.46602 23.588 8.47002 23.928H7.57002C7.57002 23.404 7.69402 22.934 7.94202 22.518C8.19002 22.102 8.52602 21.776 8.95002 21.54C9.37402 21.3 9.85402 21.18 10.39 21.18C10.914 21.18 11.384 21.304 11.8 21.552C12.22 21.796 12.55 22.128 12.79 22.548C13.034 22.964 13.156 23.428 13.156 23.94C13.156 24.3 13.112 24.618 13.024 24.894C12.94 25.166 12.806 25.42 12.622 25.656C12.442 25.888 12.212 26.128 11.932 26.376L8.46402 29.508L8.32602 29.148H13.156V29.994H7.51602ZM17.4198 30.18C16.8878 30.18 16.4078 30.056 15.9798 29.808C15.5558 29.56 15.2198 29.224 14.9718 28.8C14.7238 28.372 14.5998 27.892 14.5998 27.36V24C14.5998 23.468 14.7238 22.99 14.9718 22.566C15.2198 22.138 15.5558 21.8 15.9798 21.552C16.4078 21.304 16.8878 21.18 17.4198 21.18C17.9518 21.18 18.4298 21.304 18.8538 21.552C19.2818 21.8 19.6198 22.138 19.8678 22.566C20.1158 22.99 20.2398 23.468 20.2398 24V27.36C20.2398 27.892 20.1158 28.372 19.8678 28.8C19.6198 29.224 19.2818 29.56 18.8538 29.808C18.4298 30.056 17.9518 30.18 17.4198 30.18ZM17.4198 29.328C17.7758 29.328 18.0998 29.242 18.3918 29.07C18.6838 28.894 18.9158 28.66 19.0878 28.368C19.2598 28.076 19.3458 27.754 19.3458 27.402V23.958C19.3458 23.602 19.2598 23.278 19.0878 22.986C18.9158 22.694 18.6838 22.462 18.3918 22.29C18.0998 22.114 17.7758 22.026 17.4198 22.026C17.0638 22.026 16.7398 22.114 16.4478 22.29C16.1558 22.462 15.9238 22.694 15.7518 22.986C15.5798 23.278 15.4938 23.602 15.4938 23.958V27.402C15.4938 27.754 15.5798 28.076 15.7518 28.368C15.9238 28.66 16.1558 28.894 16.4478 29.07C16.7398 29.242 17.0638 29.328 17.4198 29.328Z" fill="#F6F6F6"/>
<path opacity="0.32" d="M32.7113 164.994L32.7173 164.034L36.5513 160.584C36.8713 160.296 37.0853 160.024 37.1933 159.768C37.3053 159.508 37.3613 159.242 37.3613 158.97C37.3613 158.638 37.2853 158.338 37.1333 158.07C36.9813 157.802 36.7733 157.59 36.5093 157.434C36.2493 157.278 35.9533 157.2 35.6213 157.2C35.2773 157.2 34.9713 157.282 34.7033 157.446C34.4353 157.606 34.2233 157.82 34.0673 158.088C33.9153 158.356 33.8413 158.648 33.8453 158.964H32.7533C32.7533 158.42 32.8793 157.94 33.1313 157.524C33.3833 157.104 33.7253 156.776 34.1573 156.54C34.5933 156.3 35.0873 156.18 35.6393 156.18C36.1753 156.18 36.6553 156.304 37.0793 156.552C37.5033 156.796 37.8373 157.13 38.0813 157.554C38.3293 157.974 38.4533 158.45 38.4533 158.982C38.4533 159.358 38.4053 159.684 38.3093 159.96C38.2173 160.236 38.0733 160.492 37.8773 160.728C37.6813 160.96 37.4353 161.208 37.1393 161.472L33.9533 164.334L33.8153 163.974H38.4533V164.994H32.7113ZM42.8048 165.18C42.2448 165.18 41.7448 165.054 41.3048 164.802C40.8688 164.546 40.5228 164.2 40.2668 163.764C40.0148 163.324 39.8888 162.824 39.8888 162.264V159.096C39.8888 158.536 40.0148 158.036 40.2668 157.596C40.5228 157.156 40.8688 156.81 41.3048 156.558C41.7448 156.306 42.2448 156.18 42.8048 156.18C43.3648 156.18 43.8648 156.306 44.3048 156.558C44.7448 156.81 45.0908 157.156 45.3428 157.596C45.5948 158.036 45.7208 158.536 45.7208 159.096V162.264C45.7208 162.824 45.5948 163.324 45.3428 163.764C45.0908 164.2 44.7448 164.546 44.3048 164.802C43.8648 165.054 43.3648 165.18 42.8048 165.18ZM42.8048 164.154C43.1448 164.154 43.4528 164.072 43.7288 163.908C44.0048 163.744 44.2248 163.524 44.3888 163.248C44.5528 162.968 44.6348 162.66 44.6348 162.324V159.03C44.6348 158.69 44.5528 158.382 44.3888 158.106C44.2248 157.83 44.0048 157.61 43.7288 157.446C43.4528 157.282 43.1448 157.2 42.8048 157.2C42.4688 157.2 42.1608 157.282 41.8808 157.446C41.6048 157.61 41.3848 157.83 41.2208 158.106C41.0568 158.382 40.9748 158.69 40.9748 159.03V162.324C40.9748 162.66 41.0568 162.968 41.2208 163.248C41.3848 163.524 41.6048 163.744 41.8808 163.908C42.1608 164.072 42.4688 164.154 42.8048 164.154ZM48.9065 165V157.542L47.2805 158.526V157.332L48.9065 156.36H49.9925V165H48.9065ZM55.2215 165.18C54.6735 165.18 54.1755 165.048 53.7275 164.784C53.2835 164.52 52.9295 164.16 52.6655 163.704C52.4055 163.244 52.2755 162.726 52.2755 162.15V159.276C52.2755 158.672 52.4055 158.138 52.6655 157.674C52.9295 157.206 53.2895 156.842 53.7455 156.582C54.2055 156.318 54.7295 156.186 55.3175 156.186C55.7935 156.186 56.2355 156.284 56.6435 156.48C57.0555 156.672 57.4015 156.95 57.6815 157.314L56.8835 158.022C56.7115 157.77 56.4875 157.57 56.2115 157.422C55.9355 157.274 55.6375 157.2 55.3175 157.2C54.9375 157.2 54.5995 157.292 54.3035 157.476C54.0115 157.656 53.7815 157.896 53.6135 158.196C53.4455 158.492 53.3615 158.812 53.3615 159.156V160.89L53.1275 160.626C53.3795 160.266 53.6995 159.978 54.0875 159.762C54.4755 159.546 54.8955 159.438 55.3475 159.438C55.8835 159.438 56.3635 159.564 56.7875 159.816C57.2155 160.068 57.5515 160.41 57.7955 160.842C58.0435 161.27 58.1675 161.752 58.1675 162.288C58.1675 162.824 58.0335 163.31 57.7655 163.746C57.4975 164.182 57.1395 164.53 56.6915 164.79C56.2475 165.05 55.7575 165.18 55.2215 165.18ZM55.2215 164.148C55.5655 164.148 55.8795 164.066 56.1635 163.902C56.4475 163.734 56.6715 163.51 56.8355 163.23C57.0035 162.946 57.0875 162.632 57.0875 162.288C57.0875 161.944 57.0035 161.63 56.8355 161.346C56.6715 161.062 56.4475 160.838 56.1635 160.674C55.8835 160.506 55.5715 160.422 55.2275 160.422C54.8835 160.422 54.5695 160.506 54.2855 160.674C54.0055 160.838 53.7815 161.062 53.6135 161.346C53.4455 161.63 53.3615 161.944 53.3615 162.288C53.3615 162.628 53.4435 162.94 53.6075 163.224C53.7755 163.504 53.9995 163.728 54.2795 163.896C54.5635 164.064 54.8775 164.148 55.2215 164.148Z" fill="#F6F6F6"/>
<path opacity="0.32" d="M111.862 164.994L111.868 164.034L115.702 160.584C116.022 160.296 116.236 160.024 116.344 159.768C116.456 159.508 116.512 159.242 116.512 158.97C116.512 158.638 116.436 158.338 116.284 158.07C116.132 157.802 115.924 157.59 115.66 157.434C115.4 157.278 115.104 157.2 114.772 157.2C114.428 157.2 114.122 157.282 113.854 157.446C113.586 157.606 113.374 157.82 113.218 158.088C113.066 158.356 112.992 158.648 112.996 158.964H111.904C111.904 158.42 112.03 157.94 112.282 157.524C112.534 157.104 112.876 156.776 113.308 156.54C113.744 156.3 114.238 156.18 114.79 156.18C115.326 156.18 115.806 156.304 116.23 156.552C116.654 156.796 116.988 157.13 117.232 157.554C117.48 157.974 117.604 158.45 117.604 158.982C117.604 159.358 117.556 159.684 117.46 159.96C117.368 160.236 117.224 160.492 117.028 160.728C116.832 160.96 116.586 161.208 116.29 161.472L113.104 164.334L112.966 163.974H117.604V164.994H111.862ZM121.955 165.18C121.395 165.18 120.895 165.054 120.455 164.802C120.019 164.546 119.673 164.2 119.417 163.764C119.165 163.324 119.039 162.824 119.039 162.264V159.096C119.039 158.536 119.165 158.036 119.417 157.596C119.673 157.156 120.019 156.81 120.455 156.558C120.895 156.306 121.395 156.18 121.955 156.18C122.515 156.18 123.015 156.306 123.455 156.558C123.895 156.81 124.241 157.156 124.493 157.596C124.745 158.036 124.871 158.536 124.871 159.096V162.264C124.871 162.824 124.745 163.324 124.493 163.764C124.241 164.2 123.895 164.546 123.455 164.802C123.015 165.054 122.515 165.18 121.955 165.18ZM121.955 164.154C122.295 164.154 122.603 164.072 122.879 163.908C123.155 163.744 123.375 163.524 123.539 163.248C123.703 162.968 123.785 162.66 123.785 162.324V159.03C123.785 158.69 123.703 158.382 123.539 158.106C123.375 157.83 123.155 157.61 122.879 157.446C122.603 157.282 122.295 157.2 121.955 157.2C121.619 157.2 121.311 157.282 121.031 157.446C120.755 157.61 120.535 157.83 120.371 158.106C120.207 158.382 120.125 158.69 120.125 159.03V162.324C120.125 162.66 120.207 162.968 120.371 163.248C120.535 163.524 120.755 163.744 121.031 163.908C121.311 164.072 121.619 164.154 121.955 164.154ZM128.057 165V157.542L126.431 158.526V157.332L128.057 156.36H129.143V165H128.057ZM131.882 165L134.99 157.386H131.066V156.36H136.136V157.386L133.034 165H131.882Z" fill="#F6F6F6"/>
<path opacity="0.32" d="M189.893 164.994L189.899 164.034L193.733 160.584C194.053 160.296 194.267 160.024 194.375 159.768C194.487 159.508 194.543 159.242 194.543 158.97C194.543 158.638 194.467 158.338 194.315 158.07C194.163 157.802 193.955 157.59 193.691 157.434C193.431 157.278 193.135 157.2 192.803 157.2C192.459 157.2 192.153 157.282 191.885 157.446C191.617 157.606 191.405 157.82 191.249 158.088C191.097 158.356 191.023 158.648 191.027 158.964H189.935C189.935 158.42 190.061 157.94 190.313 157.524C190.565 157.104 190.907 156.776 191.339 156.54C191.775 156.3 192.269 156.18 192.821 156.18C193.357 156.18 193.837 156.304 194.261 156.552C194.685 156.796 195.019 157.13 195.263 157.554C195.511 157.974 195.635 158.45 195.635 158.982C195.635 159.358 195.587 159.684 195.491 159.96C195.399 160.236 195.255 160.492 195.059 160.728C194.863 160.96 194.617 161.208 194.321 161.472L191.135 164.334L190.997 163.974H195.635V164.994H189.893ZM199.986 165.18C199.426 165.18 198.926 165.054 198.486 164.802C198.05 164.546 197.704 164.2 197.448 163.764C197.196 163.324 197.07 162.824 197.07 162.264V159.096C197.07 158.536 197.196 158.036 197.448 157.596C197.704 157.156 198.05 156.81 198.486 156.558C198.926 156.306 199.426 156.18 199.986 156.18C200.546 156.18 201.046 156.306 201.486 156.558C201.926 156.81 202.272 157.156 202.524 157.596C202.776 158.036 202.902 158.536 202.902 159.096V162.264C202.902 162.824 202.776 163.324 202.524 163.764C202.272 164.2 201.926 164.546 201.486 164.802C201.046 165.054 200.546 165.18 199.986 165.18ZM199.986 164.154C200.326 164.154 200.634 164.072 200.91 163.908C201.186 163.744 201.406 163.524 201.57 163.248C201.734 162.968 201.816 162.66 201.816 162.324V159.03C201.816 158.69 201.734 158.382 201.57 158.106C201.406 157.83 201.186 157.61 200.91 157.446C200.634 157.282 200.326 157.2 199.986 157.2C199.65 157.2 199.342 157.282 199.062 157.446C198.786 157.61 198.566 157.83 198.402 158.106C198.238 158.382 198.156 158.69 198.156 159.03V162.324C198.156 162.66 198.238 162.968 198.402 163.248C198.566 163.524 198.786 163.744 199.062 163.908C199.342 164.072 199.65 164.154 199.986 164.154ZM206.088 165V157.542L204.462 158.526V157.332L206.088 156.36H207.174V165H206.088ZM212.157 165.18C211.605 165.18 211.117 165.07 210.693 164.85C210.269 164.626 209.937 164.316 209.697 163.92C209.457 163.524 209.337 163.062 209.337 162.534C209.337 162.018 209.459 161.552 209.703 161.136C209.951 160.72 210.323 160.4 210.819 160.176L210.801 160.566C210.397 160.37 210.087 160.094 209.871 159.738C209.655 159.378 209.547 158.98 209.547 158.544C209.547 158.056 209.659 157.636 209.883 157.284C210.107 156.932 210.415 156.66 210.807 156.468C211.199 156.276 211.649 156.18 212.157 156.18C212.665 156.18 213.115 156.276 213.507 156.468C213.899 156.66 214.207 156.932 214.431 157.284C214.655 157.636 214.767 158.056 214.767 158.544C214.767 158.98 214.665 159.376 214.461 159.732C214.257 160.084 213.943 160.362 213.519 160.566L213.495 160.182C213.991 160.398 214.363 160.716 214.611 161.136C214.863 161.552 214.989 162.018 214.989 162.534C214.989 163.062 214.867 163.524 214.623 163.92C214.383 164.316 214.049 164.626 213.621 164.85C213.197 165.07 212.709 165.18 212.157 165.18ZM212.157 164.16C212.661 164.16 213.069 164.022 213.381 163.746C213.697 163.466 213.855 163.062 213.855 162.534C213.855 162.002 213.699 161.598 213.387 161.322C213.079 161.042 212.669 160.902 212.157 160.902C211.649 160.902 211.239 161.042 210.927 161.322C210.619 161.598 210.465 162.002 210.465 162.534C210.465 163.062 210.621 163.466 210.933 163.746C211.245 164.022 211.653 164.16 212.157 164.16ZM212.157 159.876C212.597 159.876 212.953 159.766 213.225 159.546C213.497 159.322 213.633 158.988 213.633 158.544C213.633 158.1 213.497 157.768 213.225 157.548C212.953 157.324 212.597 157.212 212.157 157.212C211.721 157.212 211.365 157.324 211.089 157.548C210.817 157.768 210.681 158.1 210.681 158.544C210.681 158.988 210.817 159.322 211.089 159.546C211.365 159.766 211.721 159.876 212.157 159.876Z" fill="#F6F6F6"/>
<path opacity="0.32" d="M268.711 164.994L268.717 164.034L272.551 160.584C272.871 160.296 273.085 160.024 273.193 159.768C273.305 159.508 273.361 159.242 273.361 158.97C273.361 158.638 273.285 158.338 273.133 158.07C272.981 157.802 272.773 157.59 272.509 157.434C272.249 157.278 271.953 157.2 271.621 157.2C271.277 157.2 270.971 157.282 270.703 157.446C270.435 157.606 270.223 157.82 270.067 158.088C269.915 158.356 269.841 158.648 269.845 158.964H268.753C268.753 158.42 268.879 157.94 269.131 157.524C269.383 157.104 269.725 156.776 270.157 156.54C270.593 156.3 271.087 156.18 271.639 156.18C272.175 156.18 272.655 156.304 273.079 156.552C273.503 156.796 273.837 157.13 274.081 157.554C274.329 157.974 274.453 158.45 274.453 158.982C274.453 159.358 274.405 159.684 274.309 159.96C274.217 160.236 274.073 160.492 273.877 160.728C273.681 160.96 273.435 161.208 273.139 161.472L269.953 164.334L269.815 163.974H274.453V164.994H268.711ZM278.805 165.18C278.245 165.18 277.745 165.054 277.305 164.802C276.869 164.546 276.523 164.2 276.267 163.764C276.015 163.324 275.889 162.824 275.889 162.264V159.096C275.889 158.536 276.015 158.036 276.267 157.596C276.523 157.156 276.869 156.81 277.305 156.558C277.745 156.306 278.245 156.18 278.805 156.18C279.365 156.18 279.865 156.306 280.305 156.558C280.745 156.81 281.091 157.156 281.343 157.596C281.595 158.036 281.721 158.536 281.721 159.096V162.264C281.721 162.824 281.595 163.324 281.343 163.764C281.091 164.2 280.745 164.546 280.305 164.802C279.865 165.054 279.365 165.18 278.805 165.18ZM278.805 164.154C279.145 164.154 279.453 164.072 279.729 163.908C280.005 163.744 280.225 163.524 280.389 163.248C280.553 162.968 280.635 162.66 280.635 162.324V159.03C280.635 158.69 280.553 158.382 280.389 158.106C280.225 157.83 280.005 157.61 279.729 157.446C279.453 157.282 279.145 157.2 278.805 157.2C278.469 157.2 278.161 157.282 277.881 157.446C277.605 157.61 277.385 157.83 277.221 158.106C277.057 158.382 276.975 158.69 276.975 159.03V162.324C276.975 162.66 277.057 162.968 277.221 163.248C277.385 163.524 277.605 163.744 277.881 163.908C278.161 164.072 278.469 164.154 278.805 164.154ZM284.907 165V157.542L283.281 158.526V157.332L284.907 156.36H285.993V165H284.907ZM291.102 156.186C291.654 156.186 292.152 156.318 292.596 156.582C293.04 156.846 293.392 157.206 293.652 157.662C293.916 158.118 294.048 158.636 294.048 159.216V162.09C294.048 162.694 293.918 163.228 293.658 163.692C293.398 164.156 293.038 164.52 292.578 164.784C292.122 165.048 291.598 165.18 291.006 165.18C290.534 165.18 290.092 165.082 289.68 164.886C289.272 164.69 288.926 164.412 288.642 164.052L289.44 163.344C289.616 163.592 289.842 163.792 290.118 163.944C290.394 164.092 290.69 164.166 291.006 164.166C291.39 164.166 291.728 164.074 292.02 163.89C292.316 163.706 292.546 163.466 292.71 163.17C292.878 162.874 292.962 162.554 292.962 162.21V160.476L293.196 160.74C292.948 161.1 292.63 161.388 292.242 161.604C291.854 161.82 291.432 161.928 290.976 161.928C290.44 161.928 289.96 161.802 289.536 161.55C289.112 161.298 288.776 160.958 288.528 160.53C288.28 160.098 288.156 159.614 288.156 159.078C288.156 158.542 288.29 158.056 288.558 157.62C288.826 157.18 289.182 156.832 289.626 156.576C290.074 156.316 290.566 156.186 291.102 156.186ZM291.102 157.218C290.758 157.218 290.444 157.302 290.16 157.47C289.88 157.634 289.656 157.858 289.488 158.142C289.32 158.422 289.236 158.734 289.236 159.078C289.236 159.422 289.318 159.736 289.482 160.02C289.65 160.3 289.874 160.524 290.154 160.692C290.438 160.86 290.752 160.944 291.096 160.944C291.44 160.944 291.754 160.86 292.038 160.692C292.322 160.524 292.546 160.3 292.71 160.02C292.878 159.736 292.962 159.422 292.962 159.078C292.962 158.738 292.878 158.428 292.71 158.148C292.546 157.864 292.322 157.638 292.038 157.47C291.758 157.302 291.446 157.218 291.102 157.218Z" fill="#F6F6F6"/>
<path opacity="0.32" d="M347.651 164.994L347.657 164.034L351.491 160.584C351.811 160.296 352.025 160.024 352.133 159.768C352.245 159.508 352.301 159.242 352.301 158.97C352.301 158.638 352.225 158.338 352.073 158.07C351.921 157.802 351.713 157.59 351.449 157.434C351.189 157.278 350.893 157.2 350.561 157.2C350.217 157.2 349.911 157.282 349.643 157.446C349.375 157.606 349.163 157.82 349.007 158.088C348.855 158.356 348.781 158.648 348.785 158.964H347.693C347.693 158.42 347.819 157.94 348.071 157.524C348.323 157.104 348.665 156.776 349.097 156.54C349.533 156.3 350.027 156.18 350.579 156.18C351.115 156.18 351.595 156.304 352.019 156.552C352.443 156.796 352.777 157.13 353.021 157.554C353.269 157.974 353.393 158.45 353.393 158.982C353.393 159.358 353.345 159.684 353.249 159.96C353.157 160.236 353.013 160.492 352.817 160.728C352.621 160.96 352.375 161.208 352.079 161.472L348.893 164.334L348.755 163.974H353.393V164.994H347.651ZM357.744 165.18C357.184 165.18 356.684 165.054 356.244 164.802C355.808 164.546 355.462 164.2 355.206 163.764C354.954 163.324 354.828 162.824 354.828 162.264V159.096C354.828 158.536 354.954 158.036 355.206 157.596C355.462 157.156 355.808 156.81 356.244 156.558C356.684 156.306 357.184 156.18 357.744 156.18C358.304 156.18 358.804 156.306 359.244 156.558C359.684 156.81 360.03 157.156 360.282 157.596C360.534 158.036 360.66 158.536 360.66 159.096V162.264C360.66 162.824 360.534 163.324 360.282 163.764C360.03 164.2 359.684 164.546 359.244 164.802C358.804 165.054 358.304 165.18 357.744 165.18ZM357.744 164.154C358.084 164.154 358.392 164.072 358.668 163.908C358.944 163.744 359.164 163.524 359.328 163.248C359.492 162.968 359.574 162.66 359.574 162.324V159.03C359.574 158.69 359.492 158.382 359.328 158.106C359.164 157.83 358.944 157.61 358.668 157.446C358.392 157.282 358.084 157.2 357.744 157.2C357.408 157.2 357.1 157.282 356.82 157.446C356.544 157.61 356.324 157.83 356.16 158.106C355.996 158.382 355.914 158.69 355.914 159.03V162.324C355.914 162.66 355.996 162.968 356.16 163.248C356.324 163.524 356.544 163.744 356.82 163.908C357.1 164.072 357.408 164.154 357.744 164.154ZM362.1 164.994L362.106 164.034L365.94 160.584C366.26 160.296 366.474 160.024 366.582 159.768C366.694 159.508 366.75 159.242 366.75 158.97C366.75 158.638 366.674 158.338 366.522 158.07C366.37 157.802 366.162 157.59 365.898 157.434C365.638 157.278 365.342 157.2 365.01 157.2C364.666 157.2 364.36 157.282 364.092 157.446C363.824 157.606 363.612 157.82 363.456 158.088C363.304 158.356 363.23 158.648 363.234 158.964H362.142C362.142 158.42 362.268 157.94 362.52 157.524C362.772 157.104 363.114 156.776 363.546 156.54C363.982 156.3 364.476 156.18 365.028 156.18C365.564 156.18 366.044 156.304 366.468 156.552C366.892 156.796 367.226 157.13 367.47 157.554C367.718 157.974 367.842 158.45 367.842 158.982C367.842 159.358 367.794 159.684 367.698 159.96C367.606 160.236 367.462 160.492 367.266 160.728C367.07 160.96 366.824 161.208 366.528 161.472L363.342 164.334L363.204 163.974H367.842V164.994H362.1ZM372.194 165.18C371.634 165.18 371.134 165.054 370.694 164.802C370.258 164.546 369.912 164.2 369.656 163.764C369.404 163.324 369.278 162.824 369.278 162.264V159.096C369.278 158.536 369.404 158.036 369.656 157.596C369.912 157.156 370.258 156.81 370.694 156.558C371.134 156.306 371.634 156.18 372.194 156.18C372.754 156.18 373.254 156.306 373.694 156.558C374.134 156.81 374.48 157.156 374.732 157.596C374.984 158.036 375.11 158.536 375.11 159.096V162.264C375.11 162.824 374.984 163.324 374.732 163.764C374.48 164.2 374.134 164.546 373.694 164.802C373.254 165.054 372.754 165.18 372.194 165.18ZM372.194 164.154C372.534 164.154 372.842 164.072 373.118 163.908C373.394 163.744 373.614 163.524 373.778 163.248C373.942 162.968 374.024 162.66 374.024 162.324V159.03C374.024 158.69 373.942 158.382 373.778 158.106C373.614 157.83 373.394 157.61 373.118 157.446C372.842 157.282 372.534 157.2 372.194 157.2C371.858 157.2 371.55 157.282 371.27 157.446C370.994 157.61 370.774 157.83 370.61 158.106C370.446 158.382 370.364 158.69 370.364 159.03V162.324C370.364 162.66 370.446 162.968 370.61 163.248C370.774 163.524 370.994 163.744 371.27 163.908C371.55 164.072 371.858 164.154 372.194 164.154Z" fill="#F6F6F6"/>
<path opacity="0.32" d="M428.969 164.994L428.975 164.034L432.809 160.584C433.129 160.296 433.343 160.024 433.451 159.768C433.563 159.508 433.619 159.242 433.619 158.97C433.619 158.638 433.543 158.338 433.391 158.07C433.239 157.802 433.031 157.59 432.767 157.434C432.507 157.278 432.211 157.2 431.879 157.2C431.535 157.2 431.229 157.282 430.961 157.446C430.693 157.606 430.481 157.82 430.325 158.088C430.173 158.356 430.099 158.648 430.103 158.964H429.011C429.011 158.42 429.137 157.94 429.389 157.524C429.641 157.104 429.983 156.776 430.415 156.54C430.851 156.3 431.345 156.18 431.897 156.18C432.433 156.18 432.913 156.304 433.337 156.552C433.761 156.796 434.095 157.13 434.339 157.554C434.587 157.974 434.711 158.45 434.711 158.982C434.711 159.358 434.663 159.684 434.567 159.96C434.475 160.236 434.331 160.492 434.135 160.728C433.939 160.96 433.693 161.208 433.397 161.472L430.211 164.334L430.073 163.974H434.711V164.994H428.969ZM439.063 165.18C438.503 165.18 438.003 165.054 437.563 164.802C437.127 164.546 436.781 164.2 436.525 163.764C436.273 163.324 436.147 162.824 436.147 162.264V159.096C436.147 158.536 436.273 158.036 436.525 157.596C436.781 157.156 437.127 156.81 437.563 156.558C438.003 156.306 438.503 156.18 439.063 156.18C439.623 156.18 440.123 156.306 440.563 156.558C441.003 156.81 441.349 157.156 441.601 157.596C441.853 158.036 441.979 158.536 441.979 159.096V162.264C441.979 162.824 441.853 163.324 441.601 163.764C441.349 164.2 441.003 164.546 440.563 164.802C440.123 165.054 439.623 165.18 439.063 165.18ZM439.063 164.154C439.403 164.154 439.711 164.072 439.987 163.908C440.263 163.744 440.483 163.524 440.647 163.248C440.811 162.968 440.893 162.66 440.893 162.324V159.03C440.893 158.69 440.811 158.382 440.647 158.106C440.483 157.83 440.263 157.61 439.987 157.446C439.711 157.282 439.403 157.2 439.063 157.2C438.727 157.2 438.419 157.282 438.139 157.446C437.863 157.61 437.643 157.83 437.479 158.106C437.315 158.382 437.233 158.69 437.233 159.03V162.324C437.233 162.66 437.315 162.968 437.479 163.248C437.643 163.524 437.863 163.744 438.139 163.908C438.419 164.072 438.727 164.154 439.063 164.154ZM443.418 164.994L443.424 164.034L447.258 160.584C447.578 160.296 447.792 160.024 447.9 159.768C448.012 159.508 448.068 159.242 448.068 158.97C448.068 158.638 447.992 158.338 447.84 158.07C447.688 157.802 447.48 157.59 447.216 157.434C446.956 157.278 446.66 157.2 446.328 157.2C445.984 157.2 445.678 157.282 445.41 157.446C445.142 157.606 444.93 157.82 444.774 158.088C444.622 158.356 444.548 158.648 444.552 158.964H443.46C443.46 158.42 443.586 157.94 443.838 157.524C444.09 157.104 444.432 156.776 444.864 156.54C445.3 156.3 445.794 156.18 446.346 156.18C446.882 156.18 447.362 156.304 447.786 156.552C448.21 156.796 448.544 157.13 448.788 157.554C449.036 157.974 449.16 158.45 449.16 158.982C449.16 159.358 449.112 159.684 449.016 159.96C448.924 160.236 448.78 160.492 448.584 160.728C448.388 160.96 448.142 161.208 447.846 161.472L444.66 164.334L444.522 163.974H449.16V164.994H443.418ZM452.102 165V157.542L450.476 158.526V157.332L452.102 156.36H453.188V165H452.102Z" fill="#F6F6F6"/>
<path opacity="0.32" d="M507.938 164.994L507.944 164.034L511.778 160.584C512.098 160.296 512.312 160.024 512.42 159.768C512.532 159.508 512.588 159.242 512.588 158.97C512.588 158.638 512.512 158.338 512.36 158.07C512.208 157.802 512 157.59 511.736 157.434C511.476 157.278 511.18 157.2 510.848 157.2C510.504 157.2 510.198 157.282 509.93 157.446C509.662 157.606 509.45 157.82 509.294 158.088C509.142 158.356 509.068 158.648 509.072 158.964H507.98C507.98 158.42 508.106 157.94 508.358 157.524C508.61 157.104 508.952 156.776 509.384 156.54C509.82 156.3 510.314 156.18 510.866 156.18C511.402 156.18 511.882 156.304 512.306 156.552C512.73 156.796 513.064 157.13 513.308 157.554C513.556 157.974 513.68 158.45 513.68 158.982C513.68 159.358 513.632 159.684 513.536 159.96C513.444 160.236 513.3 160.492 513.104 160.728C512.908 160.96 512.662 161.208 512.366 161.472L509.18 164.334L509.042 163.974H513.68V164.994H507.938ZM518.031 165.18C517.471 165.18 516.971 165.054 516.531 164.802C516.095 164.546 515.749 164.2 515.493 163.764C515.241 163.324 515.115 162.824 515.115 162.264V159.096C515.115 158.536 515.241 158.036 515.493 157.596C515.749 157.156 516.095 156.81 516.531 156.558C516.971 156.306 517.471 156.18 518.031 156.18C518.591 156.18 519.091 156.306 519.531 156.558C519.971 156.81 520.317 157.156 520.569 157.596C520.821 158.036 520.947 158.536 520.947 159.096V162.264C520.947 162.824 520.821 163.324 520.569 163.764C520.317 164.2 519.971 164.546 519.531 164.802C519.091 165.054 518.591 165.18 518.031 165.18ZM518.031 164.154C518.371 164.154 518.679 164.072 518.955 163.908C519.231 163.744 519.451 163.524 519.615 163.248C519.779 162.968 519.861 162.66 519.861 162.324V159.03C519.861 158.69 519.779 158.382 519.615 158.106C519.451 157.83 519.231 157.61 518.955 157.446C518.679 157.282 518.371 157.2 518.031 157.2C517.695 157.2 517.387 157.282 517.107 157.446C516.831 157.61 516.611 157.83 516.447 158.106C516.283 158.382 516.201 158.69 516.201 159.03V162.324C516.201 162.66 516.283 162.968 516.447 163.248C516.611 163.524 516.831 163.744 517.107 163.908C517.387 164.072 517.695 164.154 518.031 164.154ZM522.387 164.994L522.393 164.034L526.227 160.584C526.547 160.296 526.761 160.024 526.869 159.768C526.981 159.508 527.037 159.242 527.037 158.97C527.037 158.638 526.961 158.338 526.809 158.07C526.657 157.802 526.449 157.59 526.185 157.434C525.925 157.278 525.629 157.2 525.297 157.2C524.953 157.2 524.647 157.282 524.379 157.446C524.111 157.606 523.899 157.82 523.743 158.088C523.591 158.356 523.517 158.648 523.521 158.964H522.429C522.429 158.42 522.555 157.94 522.807 157.524C523.059 157.104 523.401 156.776 523.833 156.54C524.269 156.3 524.763 156.18 525.315 156.18C525.851 156.18 526.331 156.304 526.755 156.552C527.179 156.796 527.513 157.13 527.757 157.554C528.005 157.974 528.129 158.45 528.129 158.982C528.129 159.358 528.081 159.684 527.985 159.96C527.893 160.236 527.749 160.492 527.553 160.728C527.357 160.96 527.111 161.208 526.815 161.472L523.629 164.334L523.491 163.974H528.129V164.994H522.387ZM529.325 164.994L529.331 164.034L533.165 160.584C533.485 160.296 533.699 160.024 533.807 159.768C533.919 159.508 533.975 159.242 533.975 158.97C533.975 158.638 533.899 158.338 533.747 158.07C533.595 157.802 533.387 157.59 533.123 157.434C532.863 157.278 532.567 157.2 532.235 157.2C531.891 157.2 531.585 157.282 531.317 157.446C531.049 157.606 530.837 157.82 530.681 158.088C530.529 158.356 530.455 158.648 530.459 158.964H529.367C529.367 158.42 529.493 157.94 529.745 157.524C529.997 157.104 530.339 156.776 530.771 156.54C531.207 156.3 531.701 156.18 532.253 156.18C532.789 156.18 533.269 156.304 533.693 156.552C534.117 156.796 534.451 157.13 534.695 157.554C534.943 157.974 535.067 158.45 535.067 158.982C535.067 159.358 535.019 159.684 534.923 159.96C534.831 160.236 534.687 160.492 534.491 160.728C534.295 160.96 534.049 161.208 533.753 161.472L530.567 164.334L530.429 163.974H535.067V164.994H529.325Z" fill="#F6F6F6"/>
<rect opacity="0.08" x="491" y="82" width="1.00002" height="460" rx="0.500011" transform="rotate(90 491 82)" fill="#F6F6F6"/>
<rect opacity="0.08" x="491" y="25" width="1.00002" height="460" rx="0.500011" transform="rotate(90 491 25)" fill="#F6F6F6"/>
<g clip-path="url(#clip0_503_15053)">
<path d="M528.5 31.9998C528.5 31.9998 523.583 45.6683 510.552 48.1519C504.533 49.2272 496.413 43.9889 488.138 36.9089C471.756 22.8931 449.36 19.279 430.675 30.035L340.411 81.9956C320.239 93.6075 296.476 88.3671 285.561 67.8097C279.471 56.3401 273.361 45.7148 267.211 41.3968C254.074 32.2466 241.149 50.5469 228.117 64.6207C215.051 78.4331 202.055 88.0189 189.023 80.9166C176.063 74.0758 162.961 50.5469 149.93 57.6492C137.039 64.49 123.867 101.962 111.188 115.774C98.0158 129.848 85.1253 120.262 72.094 115.774C58.9923 111.112 46.0314 111.112 39.3397 111.112H33.0002" stroke="#CBFF8C" stroke-width="5" stroke-linecap="round"/>
<path d="M348.392 93.18C347.532 93.18 346.802 92.99 346.202 92.61C345.602 92.23 345.144 91.702 344.828 91.026C344.516 90.35 344.36 89.568 344.36 88.68C344.36 87.792 344.516 87.01 344.828 86.334C345.144 85.658 345.602 85.13 346.202 84.75C346.802 84.37 347.532 84.18 348.392 84.18C349.256 84.18 349.988 84.37 350.588 84.75C351.188 85.13 351.644 85.658 351.956 86.334C352.268 87.01 352.424 87.792 352.424 88.68C352.424 89.568 352.268 90.35 351.956 91.026C351.644 91.702 351.188 92.23 350.588 92.61C349.988 92.99 349.256 93.18 348.392 93.18ZM348.392 92.16C349.036 92.164 349.572 92.02 350 91.728C350.432 91.432 350.754 91.022 350.966 90.498C351.182 89.974 351.29 89.368 351.29 88.68C351.29 87.988 351.182 87.382 350.966 86.862C350.754 86.342 350.432 85.936 350 85.644C349.572 85.352 349.036 85.204 348.392 85.2C347.748 85.196 347.212 85.34 346.784 85.632C346.36 85.924 346.04 86.332 345.824 86.856C345.608 87.38 345.498 87.988 345.494 88.68C345.49 89.368 345.596 89.972 345.812 90.492C346.028 91.012 346.35 91.42 346.778 91.716C347.21 92.008 347.748 92.156 348.392 92.16ZM355.009 93L353.029 86.514L354.091 86.52L355.537 91.26L356.995 86.52H357.937L359.389 91.26L360.841 86.52H361.897L359.917 93H359.029L357.463 88.074L355.897 93H355.009ZM367.595 93V89.754C367.595 89.446 367.567 89.15 367.511 88.866C367.459 88.582 367.365 88.328 367.229 88.104C367.097 87.876 366.917 87.696 366.689 87.564C366.465 87.432 366.181 87.366 365.837 87.366C365.569 87.366 365.325 87.412 365.105 87.504C364.889 87.592 364.703 87.728 364.547 87.912C364.391 88.096 364.269 88.328 364.181 88.608C364.097 88.884 364.055 89.21 364.055 89.586L363.353 89.37C363.353 88.742 363.465 88.204 363.689 87.756C363.917 87.304 364.235 86.958 364.643 86.718C365.055 86.474 365.539 86.352 366.095 86.352C366.515 86.352 366.873 86.418 367.169 86.55C367.465 86.682 367.711 86.858 367.907 87.078C368.103 87.294 368.257 87.538 368.369 87.81C368.481 88.078 368.559 88.352 368.603 88.632C368.651 88.908 368.675 89.17 368.675 89.418V93H367.595ZM362.975 93V86.52H363.935V88.254H364.055V93H362.975ZM373.255 93V86.166C373.255 85.998 373.263 85.828 373.279 85.656C373.295 85.48 373.331 85.31 373.387 85.146C373.443 84.978 373.535 84.824 373.663 84.684C373.811 84.52 373.973 84.404 374.149 84.336C374.325 84.264 374.503 84.22 374.683 84.204C374.867 84.188 375.041 84.18 375.205 84.18H376.027V85.068H375.265C374.949 85.068 374.713 85.146 374.557 85.302C374.401 85.454 374.323 85.686 374.323 85.998V93H373.255ZM372.157 87.402V86.52H376.027V87.402H372.157ZM377.287 85.374V84.27H378.355V85.374H377.287ZM377.287 93V86.52H378.355V93H377.287ZM380.16 93V86.52H381.114V88.086L380.958 87.882C381.034 87.682 381.132 87.498 381.252 87.33C381.376 87.162 381.514 87.024 381.666 86.916C381.834 86.78 382.024 86.676 382.236 86.604C382.448 86.532 382.664 86.49 382.884 86.478C383.104 86.462 383.31 86.476 383.502 86.52V87.522C383.278 87.462 383.032 87.446 382.764 87.474C382.496 87.502 382.248 87.6 382.02 87.768C381.812 87.916 381.65 88.096 381.534 88.308C381.422 88.52 381.344 88.75 381.3 88.998C381.256 89.242 381.234 89.492 381.234 89.748V93H380.16ZM386.851 93.174C386.079 93.174 385.445 93.006 384.949 92.67C384.457 92.33 384.155 91.856 384.043 91.248L385.135 91.074C385.223 91.426 385.425 91.706 385.741 91.914C386.057 92.118 386.449 92.22 386.917 92.22C387.361 92.22 387.709 92.128 387.961 91.944C388.213 91.76 388.339 91.51 388.339 91.194C388.339 91.01 388.297 90.862 388.213 90.75C388.129 90.634 387.955 90.526 387.691 90.426C387.431 90.326 387.037 90.206 386.509 90.066C385.937 89.914 385.487 89.756 385.159 89.592C384.831 89.428 384.597 89.238 384.457 89.022C384.317 88.806 384.247 88.544 384.247 88.236C384.247 87.856 384.351 87.524 384.559 87.24C384.767 86.952 385.057 86.73 385.429 86.574C385.805 86.418 386.241 86.34 386.737 86.34C387.229 86.34 387.669 86.418 388.057 86.574C388.445 86.73 388.757 86.952 388.993 87.24C389.233 87.524 389.375 87.856 389.419 88.236L388.327 88.434C388.275 88.086 388.107 87.812 387.823 87.612C387.543 87.412 387.181 87.306 386.737 87.294C386.317 87.278 385.975 87.352 385.711 87.516C385.451 87.68 385.321 87.902 385.321 88.182C385.321 88.338 385.369 88.472 385.465 88.584C385.565 88.696 385.747 88.802 386.011 88.902C386.279 89.002 386.667 89.116 387.175 89.244C387.747 89.388 388.197 89.546 388.525 89.718C388.857 89.886 389.093 90.086 389.233 90.318C389.373 90.546 389.443 90.828 389.443 91.164C389.443 91.788 389.213 92.28 388.753 92.64C388.293 92.996 387.659 93.174 386.851 93.174ZM394.384 93C394 93.076 393.62 93.106 393.244 93.09C392.872 93.078 392.54 93.004 392.248 92.868C391.956 92.728 391.734 92.512 391.582 92.22C391.454 91.964 391.384 91.706 391.372 91.446C391.364 91.182 391.36 90.884 391.36 90.552V84.72H392.428V90.504C392.428 90.768 392.43 90.994 392.434 91.182C392.442 91.37 392.484 91.532 392.56 91.668C392.704 91.924 392.932 92.074 393.244 92.118C393.56 92.162 393.94 92.15 394.384 92.082V93ZM390.046 87.402V86.52H394.384V87.402H390.046ZM401.078 93.18C400.47 93.18 399.958 93.03 399.542 92.73C399.126 92.426 398.81 92.016 398.594 91.5C398.382 90.98 398.276 90.398 398.276 89.754C398.276 89.102 398.382 88.518 398.594 88.002C398.81 87.486 399.126 87.08 399.542 86.784C399.962 86.488 400.476 86.34 401.084 86.34C401.684 86.34 402.2 86.49 402.632 86.79C403.068 87.086 403.402 87.492 403.634 88.008C403.866 88.524 403.982 89.106 403.982 89.754C403.982 90.402 403.866 90.984 403.634 91.5C403.402 92.016 403.068 92.426 402.632 92.73C402.2 93.03 401.682 93.18 401.078 93.18ZM398.096 95.88V86.52H399.05V91.29H399.17V95.88H398.096ZM400.946 92.202C401.374 92.202 401.728 92.094 402.008 91.878C402.288 91.662 402.498 91.37 402.638 91.002C402.778 90.63 402.848 90.214 402.848 89.754C402.848 89.298 402.778 88.886 402.638 88.518C402.502 88.15 402.29 87.858 402.002 87.642C401.718 87.426 401.356 87.318 400.916 87.318C400.496 87.318 400.148 87.422 399.872 87.63C399.596 87.834 399.39 88.12 399.254 88.488C399.118 88.852 399.05 89.274 399.05 89.754C399.05 90.226 399.116 90.648 399.248 91.02C399.384 91.388 399.592 91.678 399.872 91.89C400.152 92.098 400.51 92.202 400.946 92.202ZM405.297 93V86.52H406.251V88.086L406.095 87.882C406.171 87.682 406.269 87.498 406.389 87.33C406.513 87.162 406.651 87.024 406.803 86.916C406.971 86.78 407.161 86.676 407.373 86.604C407.585 86.532 407.801 86.49 408.021 86.478C408.241 86.462 408.447 86.476 408.639 86.52V87.522C408.415 87.462 408.169 87.446 407.901 87.474C407.633 87.502 407.385 87.6 407.157 87.768C406.949 87.916 406.787 88.096 406.671 88.308C406.559 88.52 406.481 88.75 406.437 88.998C406.393 89.242 406.371 89.492 406.371 89.748V93H405.297ZM412.416 93.18C411.772 93.18 411.216 93.034 410.748 92.742C410.284 92.45 409.926 92.046 409.674 91.53C409.422 91.014 409.296 90.422 409.296 89.754C409.296 89.074 409.424 88.478 409.68 87.966C409.936 87.454 410.298 87.056 410.766 86.772C411.234 86.484 411.784 86.34 412.416 86.34C413.064 86.34 413.622 86.486 414.09 86.778C414.558 87.066 414.916 87.468 415.164 87.984C415.416 88.496 415.542 89.086 415.542 89.754C415.542 90.43 415.416 91.026 415.164 91.542C414.912 92.054 414.552 92.456 414.084 92.748C413.616 93.036 413.06 93.18 412.416 93.18ZM412.416 92.166C413.088 92.166 413.588 91.942 413.916 91.494C414.244 91.046 414.408 90.466 414.408 89.754C414.408 89.022 414.242 88.44 413.91 88.008C413.578 87.572 413.08 87.354 412.416 87.354C411.964 87.354 411.592 87.456 411.3 87.66C411.008 87.864 410.79 88.146 410.646 88.506C410.502 88.866 410.43 89.282 410.43 89.754C410.43 90.482 410.598 91.066 410.934 91.506C411.27 91.946 411.764 92.166 412.416 92.166ZM419.407 93.18C418.803 93.18 418.285 93.03 417.853 92.73C417.421 92.426 417.087 92.016 416.851 91.5C416.619 90.984 416.503 90.402 416.503 89.754C416.503 89.106 416.619 88.524 416.851 88.008C417.087 87.492 417.421 87.086 417.853 86.79C418.285 86.49 418.801 86.34 419.401 86.34C420.013 86.34 420.527 86.488 420.943 86.784C421.359 87.08 421.673 87.486 421.885 88.002C422.101 88.518 422.209 89.102 422.209 89.754C422.209 90.398 422.101 90.98 421.885 91.5C421.673 92.016 421.359 92.426 420.943 92.73C420.527 93.03 420.015 93.18 419.407 93.18ZM419.539 92.202C419.975 92.202 420.333 92.098 420.613 91.89C420.893 91.678 421.099 91.388 421.231 91.02C421.367 90.648 421.435 90.226 421.435 89.754C421.435 89.274 421.367 88.852 421.231 88.488C421.099 88.12 420.895 87.834 420.619 87.63C420.343 87.422 419.993 87.318 419.569 87.318C419.129 87.318 418.765 87.426 418.477 87.642C418.193 87.858 417.981 88.15 417.841 88.518C417.705 88.886 417.637 89.298 417.637 89.754C417.637 90.214 417.707 90.63 417.847 91.002C417.987 91.37 418.197 91.662 418.477 91.878C418.761 92.094 419.115 92.202 419.539 92.202ZM421.435 93V88.23H421.315V84.36H422.389V93H421.435ZM426.53 93.168C426.114 93.168 425.756 93.102 425.456 92.97C425.16 92.838 424.914 92.662 424.718 92.442C424.522 92.222 424.368 91.978 424.256 91.71C424.144 91.442 424.064 91.168 424.016 90.888C423.972 90.608 423.95 90.346 423.95 90.102V86.52H425.03V89.766C425.03 90.07 425.058 90.364 425.114 90.648C425.17 90.932 425.264 91.188 425.396 91.416C425.532 91.644 425.712 91.824 425.936 91.956C426.164 92.088 426.448 92.154 426.788 92.154C427.056 92.154 427.3 92.108 427.52 92.016C427.74 91.924 427.928 91.788 428.084 91.608C428.24 91.424 428.36 91.192 428.444 90.912C428.528 90.632 428.57 90.306 428.57 89.934L429.272 90.15C429.272 90.774 429.158 91.312 428.93 91.764C428.706 92.216 428.388 92.564 427.976 92.808C427.568 93.048 427.086 93.168 426.53 93.168ZM428.69 93V91.266H428.57V86.52H429.644V93H428.69ZM434.054 93.18C433.398 93.18 432.84 93.034 432.38 92.742C431.924 92.446 431.576 92.04 431.336 91.524C431.096 91.008 430.972 90.42 430.964 89.76C430.972 89.084 431.098 88.49 431.342 87.978C431.59 87.462 431.944 87.06 432.404 86.772C432.864 86.484 433.418 86.34 434.066 86.34C434.75 86.34 435.338 86.508 435.83 86.844C436.326 87.18 436.658 87.64 436.826 88.224L435.77 88.542C435.634 88.166 435.412 87.874 435.104 87.666C434.8 87.458 434.45 87.354 434.054 87.354C433.61 87.354 433.244 87.458 432.956 87.666C432.668 87.87 432.454 88.154 432.314 88.518C432.174 88.878 432.102 89.292 432.098 89.76C432.106 90.48 432.272 91.062 432.596 91.506C432.924 91.946 433.41 92.166 434.054 92.166C434.478 92.166 434.83 92.07 435.11 91.878C435.39 91.682 435.602 91.4 435.746 91.032L436.826 91.314C436.602 91.918 436.252 92.38 435.776 92.7C435.3 93.02 434.726 93.18 434.054 93.18ZM441.669 93C441.285 93.076 440.905 93.106 440.529 93.09C440.157 93.078 439.825 93.004 439.533 92.868C439.241 92.728 439.019 92.512 438.867 92.22C438.739 91.964 438.669 91.706 438.657 91.446C438.649 91.182 438.645 90.884 438.645 90.552V84.72H439.713V90.504C439.713 90.768 439.715 90.994 439.719 91.182C439.727 91.37 439.769 91.532 439.845 91.668C439.989 91.924 440.217 92.074 440.529 92.118C440.845 92.162 441.225 92.15 441.669 92.082V93ZM437.331 87.402V86.52H441.669V87.402H437.331Z" fill="white"/>
<circle cx="328" cy="86" r="7" fill="#10151D" stroke="white" stroke-width="4"/>
</g>
<defs>
<clipPath id="clip0_503_15053">
<rect width="503" height="121" rx="13" transform="matrix(-1 0 0 1 536 18)" fill="white"/>
</clipPath>
</defs>
</svg>
