<svg width="216" height="216" viewBox="0 0 216 216" fill="none" xmlns="http://www.w3.org/2000/svg">
<path d="M107.074 31.0596C119.987 30.9501 132.719 34.1042 144.088 40.2293C155.456 46.3544 165.094 55.2519 172.106 66.0963C179.117 76.9407 183.276 89.3806 184.196 102.262C185.116 115.142 182.768 128.047 177.369 139.778L152.297 128.239C155.752 120.731 157.255 112.472 156.666 104.228C156.077 95.9842 153.416 88.0227 148.928 81.0823C144.441 74.1419 138.273 68.4475 130.997 64.5274C123.721 60.6074 115.572 58.5887 107.308 58.6588L107.074 31.0596Z" fill="#D6FE98"/>
<path d="M75.557 38.131C85.8012 33.396 96.9644 30.981 108.25 31.0584L108.06 58.658C100.838 58.6085 93.6934 60.1541 87.1371 63.1845L75.557 38.131Z" fill="#FF9E68"/>
<path d="M75.557 38.131C85.8012 33.396 96.9644 30.981 108.25 31.0584L108.06 58.658C100.838 58.6085 93.6934 60.1541 87.1371 63.1845L75.557 38.131Z" fill="white" fill-opacity="0.1"/>
<path d="M46.5649 61.4913C54.3523 51.1897 64.6156 43.0221 76.4026 37.7464L87.6782 62.9383C80.1346 66.3148 73.5661 71.542 68.5821 78.135L46.5649 61.4913Z" fill="#7E6CE5"/>
<path d="M46.5649 61.4913C54.3523 51.1897 64.6156 43.0221 76.4026 37.7464L87.6782 62.9383C80.1346 66.3148 73.5661 71.542 68.5821 78.135L46.5649 61.4913Z" fill="white" fill-opacity="0.2"/>
<path d="M71.2875 175.179C58.6214 168.338 48.1375 158.068 41.0356 145.546C33.9337 133.024 30.5009 118.756 31.1299 104.374L58.7038 105.58C58.3012 114.784 60.4982 123.916 65.0434 131.93C69.5886 139.944 76.2983 146.517 84.4046 150.895L71.2875 175.179Z" fill="#F4BAFC"/>
<path d="M71.2875 175.179C58.6214 168.338 48.1375 158.068 41.0356 145.546C33.9337 133.024 30.5009 118.756 31.1299 104.374L58.7038 105.58C58.3012 114.784 60.4982 123.916 65.0434 131.93C69.5886 139.944 76.2983 146.517 84.4046 150.895L71.2875 175.179Z" fill="black" fill-opacity="0.1"/>
<path d="M31.0814 105.771C31.4954 89.5166 37.0667 73.8144 46.99 60.9338L68.8542 77.7781C62.5032 86.0217 58.9376 96.0711 58.6726 106.474L31.0814 105.771Z" fill="#F87D7D"/>
<path d="M177.867 138.671C173.585 148.377 167.336 157.088 159.514 164.254C151.692 171.42 142.469 176.885 132.426 180.303C122.384 183.72 111.741 185.017 101.172 184.111C90.6028 183.204 80.3367 180.114 71.023 175.036L84.2353 150.804C90.1961 154.054 96.7664 156.031 103.531 156.611C110.295 157.192 117.106 156.362 123.533 154.174C129.96 151.987 135.864 148.489 140.87 143.903C145.876 139.317 149.875 133.742 152.616 127.53L177.867 138.671Z" fill="#7BF1FA"/>
</svg>
