<svg width="24" height="24" viewBox="0 0 24 24" fill="none" xmlns="http://www.w3.org/2000/svg">
<path d="M16.7 7.55L6.92499 17.325C6.77499 17.475 6.59999 17.55 6.39999 17.55C6.19999 17.55 6.02499 17.475 5.87499 17.325C5.72499 17.175 5.64999 16.9958 5.64999 16.7875C5.64999 16.5792 5.72499 16.4 5.87499 16.25L15.65 6.5H6.94999C6.73333 6.5 6.55416 6.42917 6.41249 6.2875C6.27083 6.14583 6.19999 5.96667 6.19999 5.75C6.19999 5.53333 6.27083 5.35417 6.41249 5.2125C6.55416 5.07083 6.73333 5 6.94999 5H17.45C17.6667 5 17.8458 5.07083 17.9875 5.2125C18.1292 5.35417 18.2 5.53333 18.2 5.75V16.25C18.2 16.4667 18.1292 16.6458 17.9875 16.7875C17.8458 16.9292 17.6667 17 17.45 17C17.2333 17 17.0542 16.9292 16.9125 16.7875C16.7708 16.6458 16.7 16.4667 16.7 16.25V7.55Z" fill="#FFC300"/>
</svg>
