<svg width="32" height="32" viewBox="0 0 32 32" fill="none" xmlns="http://www.w3.org/2000/svg">
<path d="M16 25.3337C15.7111 25.3337 15.4722 25.2392 15.2834 25.0503C15.0945 24.8614 15 24.6225 15 24.3337V17.0003H7.66669C7.3778 17.0003 7.13891 16.9059 6.95002 16.717C6.76113 16.5281 6.66669 16.2892 6.66669 16.0003C6.66669 15.7114 6.76113 15.4725 6.95002 15.2837C7.13891 15.0948 7.3778 15.0003 7.66669 15.0003H15V7.66699C15 7.3781 15.0945 7.13921 15.2834 6.95033C15.4722 6.76144 15.7111 6.66699 16 6.66699C16.2889 6.66699 16.5278 6.76144 16.7167 6.95033C16.9056 7.13921 17 7.3781 17 7.66699V15.0003H24.3334C24.6222 15.0003 24.8611 15.0948 25.05 15.2837C25.2389 15.4725 25.3334 15.7114 25.3334 16.0003C25.3334 16.2892 25.2389 16.5281 25.05 16.717C24.8611 16.9059 24.6222 17.0003 24.3334 17.0003H17V24.3337C17 24.6225 16.9056 24.8614 16.7167 25.0503C16.5278 25.2392 16.2889 25.3337 16 25.3337Z" fill="#FFC300"/>
</svg>
