<svg width="24" height="24" viewBox="0 0 24 24" fill="none" xmlns="http://www.w3.org/2000/svg">
<g clip-path="url(#clip0_598_21894)">
<path fill-rule="evenodd" clip-rule="evenodd" d="M12.0002 0C18.6273 0 24 5.37253 24 12C24 18.6275 18.6273 24 12 24C5.37272 24 0 18.6276 0 12C0 5.37239 5.37267 0 12.0002 0ZM4.97639 17.4516L9.77559 13.0788L4.97152 9.45595L4.9762 17.4514L4.97639 17.4516ZM11.4261 4.22208L5.31905 8.45981L10.7297 12.5398H13.2679L18.5193 8.34281L12.5796 4.22208C12.2131 3.96769 11.7926 3.96769 11.4261 4.22208ZM14.2172 13.0671L19.0287 17.4516V9.22153L14.2172 13.0671ZM10.756 13.5444L5.76281 18.0938H18.2424L13.2492 13.5444H10.756Z" fill="white"/>
</g>
<defs>
<clipPath id="clip0_598_21894">
<rect width="24" height="24" fill="white"/>
</clipPath>
</defs>
</svg>
