<svg width="24" height="24" viewBox="0 0 24 24" fill="none" xmlns="http://www.w3.org/2000/svg">
<g clip-path="url(#clip0_598_21906)">
<path d="M24 12.0723C24 5.44527 18.627 0.0722656 12 0.0722656C5.373 0.0722656 0 5.44527 0 12.0723C0 18.0623 4.388 23.0263 10.125 23.9263V15.5413H7.078V12.0713H10.125V9.42927C10.125 6.42227 11.917 4.76027 14.658 4.76027C15.97 4.76027 17.344 4.99527 17.344 4.99527V7.94827H15.83C14.339 7.94827 13.874 8.87327 13.874 9.82227V12.0723H17.202L16.67 15.5423H13.874V23.9273C19.612 23.0263 24 18.0613 24 12.0723Z" fill="#F6F6F6"/>
</g>
<defs>
<clipPath id="clip0_598_21906">
<rect width="24" height="24" fill="white"/>
</clipPath>
</defs>
</svg>
