<svg width="25" height="24" viewBox="0 0 25 24" fill="none" xmlns="http://www.w3.org/2000/svg">
<g clip-path="url(#clip0_598_21898)">
<path d="M12.6667 0C9.40667 0 8.99967 0.015 7.71967 0.072C6.44167 0.132 5.57167 0.333 4.80667 0.63C4.01767 0.936 3.34767 1.347 2.68067 2.014C2.01367 2.681 1.60167 3.35 1.29667 4.14C0.999672 4.905 0.797672 5.775 0.738672 7.053C0.678672 8.333 0.666672 8.74 0.666672 12C0.666672 15.26 0.681672 15.667 0.738672 16.947C0.798672 18.224 0.999672 19.095 1.29667 19.86C1.60267 20.648 2.01367 21.319 2.68067 21.986C3.34767 22.652 4.01667 23.065 4.80667 23.37C5.57267 23.666 6.44267 23.869 7.71967 23.928C8.99967 23.988 9.40667 24 12.6667 24C15.9267 24 16.3337 23.985 17.6137 23.928C18.8907 23.868 19.7617 23.666 20.5267 23.37C21.3147 23.064 21.9857 22.652 22.6527 21.986C23.3187 21.319 23.7317 20.651 24.0367 19.86C24.3327 19.095 24.5357 18.224 24.5947 16.947C24.6547 15.667 24.6667 15.26 24.6667 12C24.6667 8.74 24.6517 8.333 24.5947 7.053C24.5347 5.776 24.3327 4.904 24.0367 4.14C23.7307 3.351 23.3187 2.681 22.6527 2.014C21.9857 1.347 21.3177 0.935 20.5267 0.63C19.7617 0.333 18.8907 0.131 17.6137 0.072C16.3337 0.012 15.9267 0 12.6667 0ZM12.6667 2.16C15.8697 2.16 16.2517 2.176 17.5167 2.231C18.6867 2.286 19.3217 2.48 19.7437 2.646C20.3057 2.863 20.7037 3.123 21.1257 3.542C21.5447 3.962 21.8047 4.361 22.0217 4.923C22.1857 5.345 22.3817 5.98 22.4347 7.15C22.4917 8.416 22.5047 8.796 22.5047 12C22.5047 15.204 22.4897 15.585 22.4307 16.85C22.3697 18.02 22.1747 18.655 22.0097 19.077C21.7857 19.639 21.5307 20.037 21.1107 20.459C20.6917 20.878 20.2867 21.138 19.7307 21.355C19.3107 21.519 18.6657 21.715 17.4957 21.768C16.2217 21.825 15.8467 21.838 12.6367 21.838C9.42567 21.838 9.05067 21.823 7.77767 21.764C6.60667 21.703 5.96167 21.508 5.54167 21.343C4.97267 21.119 4.58167 20.864 4.16267 20.444C3.74167 20.025 3.47267 19.62 3.26267 19.064C3.09767 18.644 2.90367 17.999 2.84267 16.829C2.79767 15.569 2.78167 15.18 2.78167 11.985C2.78167 8.789 2.79767 8.399 2.84267 7.124C2.90367 5.954 3.09767 5.31 3.26267 4.89C3.47267 4.32 3.74167 3.93 4.16267 3.509C4.58167 3.09 4.97267 2.82 5.54167 2.611C5.96167 2.445 6.59267 2.25 7.76267 2.19C9.03767 2.145 9.41267 2.13 12.6217 2.13L12.6667 2.16ZM12.6667 5.838C9.26167 5.838 6.50467 8.598 6.50467 12C6.50467 15.405 9.26467 18.162 12.6667 18.162C16.0717 18.162 18.8287 15.402 18.8287 12C18.8287 8.595 16.0687 5.838 12.6667 5.838ZM12.6667 16C10.4567 16 8.66667 14.21 8.66667 12C8.66667 9.79 10.4567 8 12.6667 8C14.8767 8 16.6667 9.79 16.6667 12C16.6667 14.21 14.8767 16 12.6667 16ZM20.5127 5.595C20.5127 6.39 19.8667 7.035 19.0727 7.035C18.2777 7.035 17.6327 6.389 17.6327 5.595C17.6327 4.801 18.2787 4.156 19.0727 4.156C19.8657 4.155 20.5127 4.801 20.5127 5.595Z" fill="#F6F6F6"/>
</g>
<defs>
<clipPath id="clip0_598_21898">
<rect width="24" height="24" fill="white" transform="translate(0.666672)"/>
</clipPath>
</defs>
</svg>
