<svg width="25" height="24" viewBox="0 0 25 24" fill="none" xmlns="http://www.w3.org/2000/svg">
<g clip-path="url(#clip0_598_21896)">
<path d="M24.2863 4.5696C23.3878 4.9652 22.4359 5.22634 21.4613 5.3446C22.4875 4.72785 23.2558 3.76064 23.6243 2.6216C22.6733 3.1766 21.6193 3.5806 20.4973 3.8056C19.7571 3.01403 18.7762 2.48902 17.707 2.3121C16.6378 2.13518 15.54 2.31625 14.5843 2.82719C13.6285 3.33813 12.8682 4.15035 12.4214 5.13772C11.9746 6.1251 11.8663 7.23237 12.1133 8.2876C8.02334 8.0946 4.40034 6.1296 1.97334 3.1616C1.53214 3.91141 1.30201 4.76663 1.30734 5.6366C1.30734 7.3466 2.17734 8.8496 3.49534 9.7326C2.7142 9.70774 1.95031 9.49653 1.26734 9.1166V9.1766C1.2669 10.313 1.65961 11.4145 2.37885 12.2944C3.09809 13.1742 4.09956 13.7781 5.21334 14.0036C4.49164 14.197 3.73576 14.226 3.00134 14.0886C3.31747 15.0666 3.93101 15.9215 4.75636 16.5341C5.58171 17.1467 6.5777 17.4863 7.60534 17.5056C5.86487 18.8715 3.71582 19.6129 1.50334 19.6106C1.11334 19.6106 0.724344 19.5876 0.333344 19.5436C2.58905 20.9879 5.21186 21.7546 7.89034 21.7526C16.9433 21.7526 21.8883 14.2566 21.8883 7.7676C21.8883 7.5576 21.8883 7.3476 21.8733 7.1376C22.8393 6.44246 23.6726 5.57942 24.3333 4.5896L24.2863 4.5696Z" fill="#F6F6F6"/>
</g>
<defs>
<clipPath id="clip0_598_21896">
<rect width="24" height="24" fill="white" transform="translate(0.333344)"/>
</clipPath>
</defs>
</svg>
