<svg width="25" height="24" viewBox="0 0 25 24" fill="none" xmlns="http://www.w3.org/2000/svg">
<g clip-path="url(#clip0_598_21904)">
<path d="M19.2277 13.1582C18.1257 13.1582 17.0927 12.6912 16.1537 11.9312L16.3817 10.8552L16.3897 10.8132C16.5967 9.67019 17.2387 7.75319 19.2287 7.75319C20.7207 7.75319 21.9317 8.96519 21.9317 10.4562C21.9307 11.9452 20.7197 13.1582 19.2277 13.1582ZM19.2277 5.01819C16.6887 5.01819 14.7177 6.66719 13.9177 9.38419C12.6977 7.55019 11.7697 5.34819 11.2307 3.49219H8.49466V10.6042C8.49266 12.0102 7.35366 13.1502 5.94766 13.1522C4.54266 13.1502 3.40466 12.0092 3.40266 10.6042V3.49219H0.666656V10.6042C0.666656 13.5182 3.03666 15.9072 5.94766 15.9072C8.86066 15.9072 11.2307 13.5182 11.2307 10.6042V9.41419C11.7597 10.5212 12.4127 11.6432 13.2047 12.6352L11.5317 20.5082H14.3287L15.5417 14.7982C16.6047 15.4772 17.8267 15.9072 19.2277 15.9072C22.2277 15.9072 24.6667 13.4552 24.6667 10.4572C24.6667 7.45719 22.2277 5.01819 19.2277 5.01819Z" fill="#F6F6F6"/>
</g>
<defs>
<clipPath id="clip0_598_21904">
<rect width="24" height="24" fill="white" transform="translate(0.666656)"/>
</clipPath>
</defs>
</svg>
