<svg width="63" height="63" viewBox="0 0 63 63" fill="none" xmlns="http://www.w3.org/2000/svg">
<g clip-path="url(#clip0_1956_5698)">
<path d="M46.0002 40.5656C44.5765 40.5656 43.4186 39.4067 43.4186 37.983C43.4186 36.5593 44.5768 35.4015 46.0002 35.4015C47.4238 35.4015 48.5817 36.5596 48.5817 37.983C48.582 39.4067 47.4238 40.5656 46.0002 40.5656ZM17.4647 40.5656C16.041 40.5656 14.8831 39.4067 14.8831 37.983C14.8831 36.5593 16.041 35.4015 17.4647 35.4015C18.8883 35.4015 20.0462 36.5596 20.0462 37.983C20.0462 39.4067 18.8881 40.5656 17.4647 40.5656ZM46.9263 25.0139L52.086 16.0776C52.228 15.831 52.2664 15.5381 52.1927 15.2632C52.119 14.9883 51.9394 14.7539 51.6931 14.6113C51.4464 14.4693 51.1536 14.4309 50.8787 14.5046C50.6038 14.5783 50.3693 14.7579 50.2268 15.0042L45.0025 24.0537C41.0071 22.2303 36.5201 21.2148 31.7324 21.2148C26.9447 21.2148 22.4577 22.2303 18.4626 24.0537L13.2383 15.0042C13.0957 14.7579 12.8612 14.5782 12.5863 14.5046C12.3114 14.4309 12.0184 14.4693 11.7718 14.6113C11.5253 14.7537 11.3455 14.9882 11.2718 15.2631C11.1982 15.5381 11.2366 15.831 11.3789 16.0776L16.5385 25.0139C7.67875 29.8326 1.61902 38.8024 0.732422 49.3995H62.7324C61.845 38.8024 55.7853 29.8326 46.9263 25.0139" fill="#70D98C"/>
</g>
<defs>
<clipPath id="clip0_1956_5698">
<rect width="62" height="62" fill="white" transform="translate(0.732422 0.933594)"/>
</clipPath>
</defs>
</svg>
