<svg width="63" height="63" viewBox="0 0 63 63" fill="none" xmlns="http://www.w3.org/2000/svg">
<path d="M28.7413 31.635C28.8381 30.0032 29.6839 28.5655 30.9598 27.5464C32.2111 26.5454 33.8953 25.9336 35.733 25.9336C37.5688 25.9336 39.253 26.5454 40.5052 27.5464C41.7802 28.5655 42.626 30.0032 42.7237 31.6333C42.8205 33.31 42.1072 34.8676 40.8559 36.0222C39.58 37.1966 37.7652 37.9336 35.733 37.9336C33.7008 37.9336 31.8823 37.1966 30.6073 36.0222C29.3551 34.8676 28.6436 33.31 28.7413 31.635Z" fill="#265787"/>
<path d="M18.7407 34.7428C18.752 35.3855 18.9559 36.6344 19.2619 37.6098C19.9049 39.6743 20.9956 41.5841 22.5132 43.2673C24.0706 44.9974 25.9885 46.387 28.2036 47.3737C30.5319 48.4098 33.0547 48.9379 35.6751 48.9336C38.2913 48.9301 40.8141 48.3916 43.1424 47.3476C45.3575 46.3514 47.2736 44.9557 48.8284 43.2248C50.3452 41.5346 51.4342 39.6213 52.0789 37.5568C52.403 36.5137 52.6078 35.455 52.69 34.3928C52.7703 33.3462 52.7366 32.2979 52.5888 31.2505C52.3002 29.2094 51.5975 27.2943 50.5154 25.5486C49.5259 23.9445 48.2502 22.5401 46.7334 21.358L46.7369 21.3554L31.4299 9.54437C31.416 9.53394 31.4048 9.52267 31.3901 9.51312C30.3858 8.73839 28.6971 8.741 27.5925 9.51746C26.4759 10.3026 26.348 11.601 27.3419 12.42L27.3376 12.4244L33.7219 17.6416L14.263 17.6624H14.237C12.6286 17.6642 11.0825 18.7246 10.7765 20.0648C10.4619 21.4301 11.5544 22.5626 13.2267 22.5687L13.2241 22.5748L23.0871 22.5557L5.48722 36.1315C5.46474 36.148 5.44054 36.1654 5.4198 36.1819C3.75955 37.4595 3.22285 39.5839 4.26861 40.9284C5.32993 42.2954 7.58653 42.2981 9.26406 40.9362L18.8695 33.0361C18.8695 33.0361 18.7295 34.1027 18.7407 34.7428ZM43.4233 38.3141C41.4441 40.3404 38.6733 41.4895 35.6751 41.4956C32.6727 41.5008 29.9019 40.3621 27.9227 38.3393C26.9556 37.3536 26.2451 36.2193 25.807 35.0112C25.3774 33.8239 25.2106 32.5637 25.3212 31.2922C25.4258 30.0493 25.794 28.8638 26.3817 27.7911C26.959 26.7368 27.7542 25.784 28.736 24.978C30.6598 23.4025 33.1092 22.5496 35.6708 22.5461C38.2351 22.5427 40.6827 23.3877 42.6083 24.958C43.5884 25.7605 44.3826 26.7098 44.96 27.7625C45.5503 28.8342 45.9158 30.0154 46.0247 31.2617C46.1336 32.5315 45.9668 33.79 45.5373 34.9782C45.0982 36.1898 44.3904 37.324 43.4233 38.3141Z" fill="#EA7600"/>
</svg>
