<svg width="63" height="63" viewBox="0 0 63 63" fill="none" xmlns="http://www.w3.org/2000/svg">
<g clip-path="url(#clip0_1956_5704)">
<path d="M31.5625 0.933594C23.3408 0.933594 15.4558 4.19966 9.64219 10.0133C3.82856 15.8269 0.5625 23.7119 0.5625 31.9336C0.5625 40.1553 3.82856 48.0403 9.64219 53.8539C15.4558 59.6675 23.3408 62.9336 31.5625 62.9336C39.7842 62.9336 47.6692 59.6675 53.4828 53.8539C59.2964 48.0403 62.5625 40.1553 62.5625 31.9336C62.5625 23.7119 59.2964 15.8269 53.4828 10.0133C47.6692 4.19966 39.7842 0.933594 31.5625 0.933594V0.933594ZM24.913 19.3269C26.668 19.3375 28.4061 19.6703 30.0409 20.3086V23.3595C28.2645 22.3724 26.2604 21.8683 24.2284 21.8973C22.9633 21.8553 21.7038 22.0841 20.5342 22.5684C19.3647 23.0526 18.3122 23.7813 17.4472 24.7054C15.6339 26.7733 14.6963 29.4656 14.8328 32.2126C14.6976 34.8103 15.5724 37.3597 17.2741 39.3271C18.0895 40.2034 19.0845 40.8931 20.1912 41.3493C21.2978 41.8054 22.4899 42.0171 23.6859 41.9698C25.9186 42.0253 28.1226 41.4582 30.0512 40.332L30.0409 43.122C27.932 44.148 25.6034 44.6404 23.2597 44.5558C21.7112 44.6236 20.1662 44.3597 18.728 43.7818C17.2898 43.204 15.9917 42.3255 14.9207 41.2052C12.7666 38.7914 11.6428 35.6304 11.7897 32.3986C11.7149 30.6657 11.9884 28.9353 12.5941 27.31C13.1998 25.6846 14.1253 24.1972 15.3159 22.9358C16.479 21.7453 17.8777 20.8106 19.4225 20.1914C20.9674 19.5722 22.6245 19.2822 24.2878 19.3398C24.3911 19.3353 24.4945 19.3318 24.5978 19.3295C24.7029 19.3284 24.8079 19.3284 24.913 19.3295V19.3269ZM40.0591 19.7273H42.2187L40.785 26.5783H45.0759L46.5407 19.7273H48.6332L47.1994 26.5783L51.6737 26.568L51.2862 28.3686H46.83L45.7657 33.4836H50.55L50.0953 35.2868H45.404L43.9057 42.068H41.7615L43.2262 35.2868H38.9637L37.53 42.068H35.4375L36.8712 35.2868H32.3762L32.7147 33.4836H37.2303L38.2662 28.3789H33.5491L33.9056 26.5783H38.6227L40.0591 19.7273ZM40.4259 28.3686L39.3125 33.4836H43.6344L44.7272 28.3686H40.4259Z" fill="#239120"/>
</g>
<defs>
<clipPath id="clip0_1956_5704">
<rect width="62" height="62" fill="white" transform="translate(0.5625 0.933594)"/>
</clipPath>
</defs>
</svg>
