<svg width="63" height="63" viewBox="0 0 63 63" fill="none" xmlns="http://www.w3.org/2000/svg">
<g clip-path="url(#clip0_1956_5730)">
<g clip-path="url(#clip1_1956_5730)">
<path d="M9.37333 56.7359L4.39819 0.933594H59.0667L54.0862 56.7271L31.699 62.9336L9.37333 56.7359Z" fill="#264DE4"/>
<path d="M49.8224 53.1744L54.0786 5.49616H31.7324V58.1896L49.8224 53.1744Z" fill="#2965F1"/>
<path d="M15.8038 26.1925L16.4171 33.0364H31.7325V26.1925H15.8038ZM15.1933 19.1842H31.7325V12.3403H14.5712L15.1933 19.1842ZM31.7325 43.9669L31.7024 43.9749L24.0803 41.9168L23.5931 36.4584H16.7228L17.6817 47.2044L31.701 51.0963L31.7325 51.0875V43.9669Z" fill="#EBEBEB"/>
<path d="M31.7088 26.1925V33.0364H40.1363L39.3419 41.9124L31.7088 43.9726V51.0929L45.7392 47.2044L45.8421 46.048L47.4503 28.0303L47.6174 26.1925L48.8529 12.3403H31.7088V19.1842H41.3526L40.7297 26.1925H31.7088Z" fill="white"/>
</g>
</g>
<defs>
<clipPath id="clip0_1956_5730">
<rect width="62" height="62" fill="white" transform="translate(0.732422 0.933594)"/>
</clipPath>
<clipPath id="clip1_1956_5730">
<rect width="62" height="62" fill="white" transform="translate(0.732422 0.933594)"/>
</clipPath>
</defs>
</svg>
