<svg width="63" height="63" viewBox="0 0 63 63" fill="none" xmlns="http://www.w3.org/2000/svg">
<g clip-path="url(#clip0_1956_5714)">
<path d="M62.5801 48.8362C61.6778 49.1775 60.6817 49.1768 59.7798 48.8341C58.878 48.4915 58.1328 47.8306 57.6847 46.9762L48.7722 34.6511L47.4805 32.9281L37.1394 46.9917C36.7183 47.8103 36.0135 48.4474 35.1567 48.784C34.3 49.1206 33.35 49.1337 32.4843 48.8207L45.8091 30.9441L33.4143 14.7957C34.3055 14.4745 35.2802 14.4702 36.1742 14.7836C37.0682 15.097 37.8269 15.7088 38.3226 16.5162L47.5606 28.9936L56.8503 16.5678C57.2747 15.7639 57.9797 15.1439 58.8313 14.8257C59.6829 14.5075 60.6217 14.5134 61.4693 14.8422L56.6591 21.2256L50.1439 29.7066C49.963 29.868 49.8182 30.0659 49.7191 30.2871C49.62 30.5084 49.5687 30.7481 49.5687 30.9906C49.5687 31.233 49.62 31.4727 49.7191 31.694C49.8182 31.9153 49.963 32.1131 50.1439 32.2745L62.5543 48.8388L62.5801 48.8362ZM0.585276 30.7219L1.67028 25.3615C4.65144 14.7621 16.8034 10.3523 25.1631 16.914C30.0585 20.7606 31.2804 26.2062 31.0402 32.3442H3.46311C3.01619 43.3053 10.9264 49.9238 21.0401 46.5422C22.6796 45.9521 24.1472 44.9644 25.3113 43.6678C26.4754 42.3712 27.2996 40.806 27.7103 39.1126C28.245 37.3921 29.1259 37.0976 30.7431 37.5936C30.4736 39.6922 29.7318 41.7024 28.5733 43.473C27.4148 45.2436 25.87 46.7284 24.0549 47.8158C21.0567 49.4558 17.6167 50.1058 14.2269 49.6729C10.837 49.24 7.67084 47.7464 5.18103 45.4056C2.71918 42.6347 1.23131 39.1345 0.944359 35.4391C0.944359 34.832 0.737692 34.2637 0.598192 33.7186C0.585617 32.7206 0.579589 31.7225 0.580109 30.7245L0.585276 30.7219ZM3.49669 29.9831H28.4362C28.2812 22.0367 23.2669 16.3999 16.5787 16.3482C9.13352 16.2449 3.80669 21.7577 3.47861 29.9469L3.49669 29.9831Z" fill="white"/>
</g>
<defs>
<clipPath id="clip0_1956_5714">
<rect width="62" height="62" fill="white" transform="translate(0.580078 0.81723)"/>
</clipPath>
</defs>
</svg>
