<svg width="63" height="63" viewBox="0 0 63 63" fill="none" xmlns="http://www.w3.org/2000/svg">
<g clip-path="url(#clip0_1956_5725)">
<path d="M31.7376 0.933594C30.2724 0.933594 28.8672 1.51563 27.8312 2.55167C26.7952 3.58771 26.2131 4.99287 26.2131 6.45805C26.2131 7.92323 26.7952 9.3284 27.8312 10.3644C28.8672 11.4005 30.2724 11.9825 31.7376 11.9825C33.2028 11.9825 34.6079 11.4005 35.644 10.3644C36.68 9.3284 37.2621 7.92323 37.2621 6.45805C37.2621 4.99287 36.68 3.58771 35.644 2.55167C34.6079 1.51563 33.2028 0.933594 31.7376 0.933594V0.933594ZM53.7993 13.672C52.3341 13.672 50.9289 14.254 49.8929 15.2901C48.8568 16.3261 48.2748 17.7313 48.2748 19.1965C48.2748 20.6616 48.8568 22.0668 49.8929 23.1029C50.9289 24.1389 52.3341 24.7209 53.7993 24.7209C55.2644 24.7209 56.6696 24.1389 57.7056 23.1029C58.7417 22.0668 59.3237 20.6616 59.3237 19.1965C59.3237 17.7313 58.7417 16.3261 57.7056 15.2901C56.6696 14.254 55.2644 13.672 53.7993 13.672ZM53.7993 39.1488C52.3341 39.1488 50.9289 39.7309 49.8929 40.7669C48.8568 41.803 48.2748 43.2081 48.2748 44.6733C48.2748 46.1385 48.8568 47.5436 49.8929 48.5797C50.9289 49.6157 52.3341 50.1978 53.7993 50.1978C55.2644 50.1978 56.6696 49.6157 57.7056 48.5797C58.7417 47.5436 59.3237 46.1385 59.3237 44.6733C59.3237 43.2081 58.7417 41.803 57.7056 40.7669C56.6696 39.7309 55.2644 39.1488 53.7993 39.1488V39.1488ZM31.7376 51.8873C30.2728 51.8873 28.8679 52.4692 27.8321 53.505C26.7963 54.5408 26.2144 55.9456 26.2144 57.4104C26.2144 58.8753 26.7963 60.2801 27.8321 61.3159C28.8679 62.3517 30.2728 62.9336 31.7376 62.9336C33.2024 62.9336 34.6073 62.3517 35.6431 61.3159C36.6789 60.2801 37.2608 58.8753 37.2608 57.4104C37.2608 55.9456 36.6789 54.5408 35.6431 53.505C34.6073 52.4692 33.2024 51.8873 31.7376 51.8873ZM9.67076 39.1514C8.94545 39.1514 8.22724 39.2943 7.55714 39.5719C6.88703 39.8494 6.27816 40.2563 5.76529 40.7691C5.25242 41.282 4.84558 41.8909 4.56802 42.561C4.29045 43.2311 4.14759 43.9493 4.14759 44.6746C4.14759 45.3999 4.29045 46.1181 4.56802 46.7882C4.84558 47.4583 5.25242 48.0672 5.76529 48.5801C6.27816 49.0929 6.88703 49.4998 7.55714 49.7773C8.22724 50.0549 8.94545 50.1978 9.67076 50.1978C11.1359 50.1978 12.5411 49.6157 13.5771 48.5797C14.6132 47.5436 15.1952 46.1385 15.1952 44.6733C15.1952 43.2081 14.6132 41.803 13.5771 40.7669C12.5411 39.7309 11.1359 39.1488 9.67076 39.1488V39.1514ZM9.67076 13.672C8.20558 13.672 6.80041 14.254 5.76438 15.2901C4.72834 16.3261 4.1463 17.7313 4.1463 19.1965C4.1463 20.6616 4.72834 22.0668 5.76438 23.1029C6.80041 24.1389 8.20558 24.7209 9.67076 24.7209C11.1359 24.7209 12.5411 24.1389 13.5771 23.1029C14.6132 22.0668 15.1952 20.6616 15.1952 19.1965C15.1952 17.7313 14.6132 16.3261 13.5771 15.2901C12.5411 14.254 11.1359 13.672 9.67076 13.672V13.672ZM31.7376 4.94551L8.36101 18.4408V45.4315L31.7376 58.9268L55.109 45.4315V18.4408L31.7376 4.94551ZM31.7376 9.08143L51.5259 43.3623H11.9441L31.7376 9.08143ZM28.1545 10.0398L10.9883 39.7792V19.9547L28.1545 10.0398ZM35.3207 10.0398L52.4895 19.9547V39.7792L35.3207 10.0398ZM14.5662 45.9869H48.9064L31.7376 55.8966L14.5662 45.9869Z" fill="#E10098"/>
</g>
<defs>
<clipPath id="clip0_1956_5725">
<rect width="62" height="62" fill="white" transform="translate(0.732422 0.933594)"/>
</clipPath>
</defs>
</svg>
