<svg width="63" height="63" viewBox="0 0 63 63" fill="none" xmlns="http://www.w3.org/2000/svg">
<g clip-path="url(#clip0_1956_5769)">
<g clip-path="url(#clip1_1956_5769)">
<path d="M9.33008 56.6367L4.36523 0.933594H58.9785L54.0137 56.6367L31.6113 62.9336" fill="#E34F26"/>
<path d="M31.7324 58.0898L49.7754 53.125L54.0137 5.41406H31.7324" fill="#EF652A"/>
<path d="M31.7324 26.1211H22.6504L22.0449 19.0977H31.7324V12.3164H31.6113H14.5371L14.6582 14.1328L16.3535 33.0234H31.7324V26.1211ZM31.7324 43.9219H31.6113L23.9824 41.8633L23.498 36.4141H19.8652H16.7168L17.5645 47.1914L31.6113 51.0664H31.7324V43.9219Z" fill="#EBEBEB"/>
<path d="M31.6113 26.1211V33.0234H40.0879L39.2402 41.8633L31.6113 43.9219V51.0664L45.6582 47.1914L45.7793 45.9805L47.3535 27.9375L47.5957 26.1211H45.6582H31.6113ZM31.6113 12.3164V16.5547V19.0977H48.2012L48.3223 17.6445L48.6855 14.1328L48.8066 12.3164H31.6113Z" fill="white"/>
</g>
</g>
<defs>
<clipPath id="clip0_1956_5769">
<rect width="62" height="62" fill="white" transform="translate(0.732422 0.933594)"/>
</clipPath>
<clipPath id="clip1_1956_5769">
<rect width="62" height="62" fill="white" transform="translate(0.732422 0.933594)"/>
</clipPath>
</defs>
</svg>
