<svg width="63" height="63" viewBox="0 0 63 63" fill="none" xmlns="http://www.w3.org/2000/svg">
<g clip-path="url(#clip0_1956_5778)">
<path d="M9.8315 19.9785C8.59781 19.9785 7.62131 20.9429 7.62131 22.1485C7.62126 22.4369 7.67869 22.7224 7.79025 22.9883C7.90181 23.2542 8.06525 23.4953 8.27103 23.6973C8.47681 23.8993 8.72079 24.0583 8.98873 24.165C9.25666 24.2717 9.54316 24.3238 9.8315 24.3185C11.0772 24.3185 12.0618 23.3541 12.0618 22.1485C12.0618 20.9429 11.0772 19.9785 9.8315 19.9785ZM25.122 20.0187C18.3708 20.0187 14.1514 24.6199 14.1514 31.9336C14.1514 39.3076 18.3708 43.8887 25.122 43.8887C31.8329 43.8887 36.0724 39.3076 36.0724 31.9336C36.0724 24.6199 31.8329 20.0187 25.122 20.0187ZM46.9023 20.0187C41.8792 20.0187 38.3027 22.7915 38.3027 26.9104C38.3027 30.1855 40.3321 32.235 44.5917 33.2195L47.5855 33.9429C50.4989 34.6059 51.6844 35.5704 51.6844 37.238C51.6844 39.1669 49.7354 40.5332 46.9626 40.5332C44.1296 40.5332 41.9997 39.1468 41.7787 37.017H37.7602C37.9209 41.2766 41.417 43.8887 46.7215 43.8887C52.3273 43.8887 55.8435 41.136 55.8435 36.7558C55.8435 33.32 53.8343 31.371 49.1728 30.3061L46.5005 29.7033C43.6674 29.0202 42.5021 28.116 42.5021 26.589C42.5021 24.6601 44.2702 23.3741 46.8822 23.3741C49.5144 23.3741 51.3227 24.6802 51.5236 26.8301H55.4618C55.3613 22.7714 52.0058 20.0187 46.9023 20.0187ZM25.122 23.5349C29.2208 23.5349 31.853 26.81 31.853 31.9336C31.853 37.0974 29.2208 40.3725 25.122 40.3725C20.9829 40.3725 18.3708 37.0974 18.3708 31.9336C18.3708 26.81 20.9829 23.5349 25.122 23.5349ZM7.84434 26.5287V43.5069H11.8408V26.5287H7.84233H7.84434Z" fill="url(#paint0_linear_1956_5778)"/>
</g>
<defs>
<linearGradient id="paint0_linear_1956_5778" x1="-4.42888" y1="20.9226" x2="6.41855" y2="51.7383" gradientUnits="userSpaceOnUse">
<stop stop-color="#F5AE20"/>
<stop offset="0.534281" stop-color="#E0323D"/>
<stop offset="1" stop-color="#3A5A9A"/>
</linearGradient>
<clipPath id="clip0_1956_5778">
<rect width="48.2222" height="48.2222" fill="white" transform="translate(7.62131 7.82248)"/>
</clipPath>
</defs>
</svg>
