<svg width="63" height="63" viewBox="0 0 63 63" fill="none" xmlns="http://www.w3.org/2000/svg">
<g clip-path="url(#clip0_1956_5807)">
<path d="M0.732422 0.733398H62.7324V62.7334H0.732422V0.733398ZM57.6536 47.9464C57.2015 45.1176 55.3596 42.741 49.8958 40.5245C47.9945 39.6332 45.8813 39.0132 45.2536 37.5795C45.0185 36.727 44.9823 36.262 45.1348 35.7582C45.5223 34.0894 47.4985 33.5882 49.0485 34.0532C50.056 34.3632 50.986 35.1382 51.5698 36.3782C54.241 34.6319 54.241 34.6319 56.1036 33.472C55.4061 32.387 55.0599 31.9194 54.5898 31.457C52.9623 29.6357 50.7948 28.7057 47.2686 28.7858L45.4473 29.0157C43.701 29.442 42.0373 30.372 41.0298 31.612C38.0848 34.9471 38.9348 40.7596 42.4998 43.1621C46.026 45.7971 51.1823 46.3757 51.8411 48.8583C52.4611 51.8808 49.5936 52.8496 46.7623 52.5008C44.6672 52.0358 43.5073 50.987 42.2285 49.0495L37.501 51.7646C38.0435 53.0046 38.6635 53.5445 39.5935 54.6295C44.0885 59.1658 55.326 58.9333 57.3436 52.0358C57.4185 51.8033 57.9636 50.2146 57.5348 47.7733L57.6536 47.9464V47.9464ZM34.4475 29.2301H28.6402C28.6402 34.2366 28.6169 39.2121 28.6169 44.2264C28.6169 47.4091 28.7797 50.3308 28.2604 51.2298C27.4079 53.0097 25.2121 52.7824 24.2149 52.4698C23.1919 51.9635 22.6727 51.266 22.0708 50.2611C21.908 49.9898 21.7866 49.7547 21.7427 49.7547L17.0281 52.661C17.816 54.2885 18.9656 55.6886 20.4484 56.5799C22.6572 57.8974 25.6254 58.3236 28.7332 57.6261C30.7559 57.0423 32.4997 55.8411 33.4116 53.9811C34.7291 51.5786 34.4501 48.6336 34.4372 45.3372C34.4682 40.0311 34.4372 34.7223 34.4372 29.3748L34.4475 29.2301V29.2301Z" fill="#F7DF1E"/>
</g>
<defs>
<clipPath id="clip0_1956_5807">
<rect width="62" height="62" fill="white" transform="translate(0.732422 0.733398)"/>
</clipPath>
</defs>
</svg>
