<svg width="63" height="63" viewBox="0 0 63 63" fill="none" xmlns="http://www.w3.org/2000/svg">
<g clip-path="url(#clip0_1956_5794)">
<path d="M4.51966 15.8976C-0.972501 23.7871 -0.290502 34.0481 3.90741 42.4258C4.003 42.6299 4.10892 42.8236 4.21225 43.0174C4.27167 43.1517 4.33883 43.2757 4.41117 43.4049C4.44475 43.4746 4.49125 43.5496 4.53258 43.6167C4.59975 43.7511 4.67208 43.8802 4.74183 44.0094L5.14741 44.6966C5.22491 44.8231 5.29467 44.9471 5.37992 45.0737C5.52458 45.3166 5.68992 45.5568 5.83975 45.7996C5.90692 45.903 5.96892 46.0011 6.04383 46.1019C6.29433 46.4963 6.56152 46.8798 6.84467 47.2515C7.04617 47.5279 7.24767 47.7966 7.46467 48.0652C7.53442 48.1634 7.6145 48.2616 7.68683 48.3623L8.25517 49.0572C8.3275 49.1347 8.39725 49.2303 8.47217 49.313C8.72533 49.6178 8.994 49.9149 9.26267 50.2171L9.27558 50.2326C9.60361 50.6464 9.97133 51.0271 10.3735 51.3693C10.5802 51.5837 10.7868 51.7956 11.0064 52.0022L11.2673 52.2528C11.5541 52.5241 11.8434 52.7927 12.1457 53.0511C12.1508 53.0511 12.1534 53.0562 12.1586 53.0588L12.3058 53.188C12.5693 53.4179 12.8354 53.6478 13.1067 53.8596L13.4296 54.1309C13.6492 54.3066 13.8791 54.4745 14.1012 54.6476L14.4552 54.9188C14.6954 55.0996 14.9512 55.2779 15.1966 55.4536C15.287 55.5181 15.3774 55.5827 15.4704 55.6421L15.5479 55.7016L16.2712 56.1795L16.5812 56.3861C16.9636 56.629 17.3407 56.8615 17.7179 57.0888C17.8238 57.1405 17.9349 57.2025 18.0357 57.2645C18.3147 57.4246 18.604 57.5874 18.8856 57.7372C19.0406 57.8251 19.2007 57.9 19.3609 57.9801C19.5547 58.0886 19.7562 58.1945 19.9654 58.303C20.0154 58.3182 20.0638 58.3381 20.1101 58.3624C20.1953 58.4011 20.2754 58.4425 20.3581 58.4838C20.6681 58.6388 20.991 58.7886 21.3268 58.9359C21.3888 58.9617 21.456 58.9876 21.5232 59.0237C21.8952 59.1865 22.2697 59.3415 22.6547 59.4939C22.7425 59.5197 22.8355 59.5636 22.9259 59.5972C23.2747 59.729 23.6337 59.8633 23.9877 59.9899L24.1168 60.0364C24.5147 60.1707 24.9047 60.2999 25.3052 60.4239C25.3982 60.4497 25.4937 60.4833 25.5919 60.5091C26.0052 60.6331 26.4031 60.7804 26.8164 60.8631C53.355 65.6991 61.0662 44.9058 61.0662 44.9058C54.5872 53.343 43.0914 55.5672 32.2001 53.0924C31.7971 52.9994 31.3941 52.8702 30.9859 52.7514C30.4943 52.6054 30.0059 52.4487 29.5212 52.2812L29.361 52.2192C29.0097 52.1004 28.6712 51.9686 28.3277 51.8369C28.2342 51.799 28.1394 51.7646 28.0435 51.7336C27.6612 51.5786 27.2943 51.421 26.9249 51.2582C26.8448 51.2324 26.7777 51.1962 26.6976 51.1652C26.3846 51.0215 26.0729 50.8751 25.7624 50.7261C25.6694 50.6849 25.578 50.6401 25.4886 50.5917C25.2457 50.4781 25.0029 50.3463 24.7652 50.2223C24.602 50.1439 24.441 50.0613 24.2822 49.9743C23.9877 49.8193 23.6957 49.6514 23.4038 49.4912C23.316 49.4292 23.2152 49.3776 23.1145 49.3207C22.7327 49.0944 22.3547 48.8618 21.9804 48.6232C21.8766 48.5595 21.7749 48.4923 21.6756 48.4217C21.4014 48.2519 21.1326 48.0736 20.8696 47.887C20.7792 47.8276 20.6965 47.763 20.6035 47.6984C20.346 47.5207 20.0919 47.3381 19.8414 47.1507C19.7329 47.0629 19.6167 46.9802 19.5004 46.8924C19.2731 46.7116 19.0432 46.5436 18.8158 46.3551L18.511 46.1096C18.2176 45.8745 17.9291 45.6333 17.6456 45.3863C17.6163 45.3567 17.5843 45.3299 17.55 45.3062L16.6536 44.4899L16.3952 44.2471C16.1834 44.0301 15.9664 43.8234 15.7494 43.6116L15.4962 43.3532C15.2234 43.0817 14.9572 42.8035 14.698 42.5188L14.6592 42.4775C14.3854 42.1778 14.1167 41.8704 13.8507 41.5604C13.7809 41.4829 13.7137 41.3951 13.644 41.3098L13.0576 40.5942C12.7597 40.2115 12.4669 39.8248 12.1792 39.4343C6.13941 31.1909 3.95392 19.8087 8.78733 10.4751M21.5567 9.25323C17.5784 14.965 17.8006 22.6065 20.9006 28.6489C21.4129 29.6656 21.9982 30.6438 22.6521 31.5758C23.2462 32.4283 23.9024 33.4384 24.7007 34.1281C24.9771 34.4433 25.2767 34.7481 25.5893 35.0581L25.8218 35.2906C26.1163 35.5748 26.4212 35.8512 26.726 36.1302L26.7673 36.1638C27.1157 36.468 27.4724 36.7626 27.8368 37.0473C27.9247 37.1067 27.9996 37.1765 28.0848 37.2359C28.4465 37.5149 28.8133 37.7836 29.1905 38.0522L29.2292 38.0755C29.3894 38.1917 29.5599 38.2976 29.7407 38.4113C29.8131 38.4578 29.8957 38.5198 29.9732 38.5663C30.2471 38.742 30.5157 38.9073 30.7947 39.0752C30.8387 39.0933 30.8774 39.1166 30.9187 39.1346C31.1512 39.2767 31.4044 39.4136 31.6472 39.5402C31.7325 39.5919 31.8152 39.6306 31.9056 39.6797C32.0761 39.765 32.2466 39.8554 32.4145 39.9432L32.4972 39.9794C32.8459 40.1525 33.2024 40.3126 33.5512 40.4702C33.639 40.5064 33.7139 40.5348 33.7888 40.571C34.0756 40.695 34.3675 40.8138 34.6568 40.9249C34.786 40.9688 34.9074 41.0205 35.0288 41.0592C35.2923 41.1574 35.5713 41.2478 35.8297 41.3382L36.1913 41.4545C36.5711 41.5707 36.9534 41.7231 37.3512 41.7903C57.8371 45.1822 62.5801 29.4032 62.5801 29.4032C58.3098 35.5516 50.0457 38.4785 41.2392 36.1922C40.8494 36.0915 40.4625 35.9796 40.0792 35.8564C39.9552 35.8202 39.8467 35.7815 39.7279 35.7453C39.4592 35.6523 39.1828 35.5645 38.9219 35.4637L38.5499 35.3242C38.258 35.208 37.9635 35.0995 37.6819 34.9755C37.5941 34.9367 37.514 34.9109 37.4468 34.8721C37.0852 34.7094 36.7209 34.5492 36.367 34.3761L35.8348 34.0997L35.5274 33.9447C35.2958 33.8217 35.0675 33.6925 34.8428 33.5572C34.7878 33.5302 34.7343 33.5 34.6827 33.4668C34.4088 33.2963 34.1221 33.131 33.8612 32.9553C33.7733 32.9062 33.6932 32.8468 33.6106 32.7951L33.0732 32.4438C32.7012 32.1855 32.337 31.9065 31.9676 31.6352C31.8849 31.5603 31.8048 31.4983 31.7247 31.4311C27.8523 28.388 24.7988 24.2236 23.3496 19.5142C21.8254 14.6136 22.1612 9.12148 24.7962 4.66007M35.8839 4.28032C33.5357 7.72648 33.3109 12.0045 34.9281 15.802C36.646 19.8397 40.1567 23.0095 44.2487 24.5078C44.4167 24.5724 44.5794 24.6266 44.7551 24.6886L44.9824 24.7584C45.2201 24.8359 45.4603 24.9211 45.7057 24.9754C57.0233 27.1583 60.0872 19.1629 60.9112 17.9901C58.2168 21.8599 53.6986 22.7873 48.1547 21.4388C47.7031 21.3259 47.2581 21.1879 46.8217 21.0255C46.2784 20.8349 45.7455 20.6159 45.2252 20.3693C44.2404 19.893 43.3043 19.3219 42.4301 18.6643C37.4649 14.9004 34.3882 7.72132 37.6277 1.87265" fill="#0769AD"/>
</g>
<defs>
<clipPath id="clip0_1956_5794">
<rect width="62" height="62" fill="white" transform="translate(0.580078 0.733398)"/>
</clipPath>
</defs>
</svg>
