<svg width="63" height="63" viewBox="0 0 63 63" fill="none" xmlns="http://www.w3.org/2000/svg">
<g clip-path="url(#clip0_1956_5799)">
<path d="M43.9489 25.4067C40.7003 10.9974 33.9294 7.16146 32.2021 4.44986C31.4899 3.25533 30.859 2.01367 30.3137 0.733398C30.2224 2.01346 30.0548 2.81991 28.9726 3.79062C26.7998 5.73846 17.5717 13.2994 16.7951 29.6714C16.0715 44.9362 27.9562 54.349 29.5264 55.3218C30.7338 55.9192 32.2043 55.3346 32.9215 54.7863C38.6506 50.833 46.4782 40.2938 43.9553 25.4067" fill="#10AA50"/>
<path d="M30.8059 47.1934C30.5068 50.9717 30.2924 53.167 29.5328 55.3261C29.5328 55.3261 30.0315 58.9231 30.3816 62.7334H31.6207C31.9163 60.0502 32.3677 57.3867 32.9724 54.7565C31.3682 53.9628 30.8675 50.5088 30.8059 47.1934Z" fill="#B8C4C2"/>
<path d="M32.9703 54.7586C31.3492 54.0055 30.8802 50.4789 30.8081 47.1934C31.209 41.7737 31.3258 36.3366 31.1582 30.9046C31.0733 28.0543 31.1985 4.50533 30.4601 1.05769C30.9652 2.22537 31.5472 3.35789 32.2022 4.44773C33.9294 7.16147 40.7024 10.9974 43.9489 25.4067C46.4782 40.2682 38.693 50.7797 32.9703 54.7586Z" fill="#12924F"/>
</g>
<defs>
<clipPath id="clip0_1956_5799">
<rect width="62" height="62" fill="white" transform="translate(0.15625 0.733398)"/>
</clipPath>
</defs>
</svg>
