<svg width="63" height="63" viewBox="0 0 63 63" fill="none" xmlns="http://www.w3.org/2000/svg">
<path fill-rule="evenodd" clip-rule="evenodd" d="M1.51537 43.7603H3.49912V35.9016L6.59718 42.7534C6.9481 43.577 7.45225 43.8821 8.42839 43.8821C9.40453 43.8821 9.87857 43.5766 10.2411 42.7534L13.3238 35.9016V43.7603H15.3229V35.9016C15.3229 35.1389 15.0175 34.7719 14.3765 34.5735C12.8658 34.1159 11.8586 34.5126 11.4009 35.5346L8.36443 42.3101L5.4343 35.5346C4.99172 34.5126 3.96906 34.1159 2.44329 34.5735C1.81738 34.7719 1.5123 35.1385 1.5123 35.9016L1.51195 43.7603H1.51537ZM16.9742 37.3665H18.9734V41.6852C18.9583 41.9291 19.0496 42.4787 20.1363 42.4934C20.7006 42.5088 24.4396 42.4934 24.4697 42.4934V37.3357H26.4688V44.4013C26.4688 46.1408 24.3141 46.5218 23.3099 46.5375H17.0235V45.2105H23.326C24.6079 45.073 24.4553 44.4324 24.4553 44.2186V43.6994H20.2279C18.2592 43.684 16.9924 42.8143 16.9777 41.8224V37.3658L16.9742 37.3665ZM59.8553 32.3609C58.6349 32.3302 57.6882 32.4526 56.8947 32.7885C56.6663 32.8808 56.2996 32.8808 56.2695 33.1702C56.3916 33.2916 56.4063 33.4903 56.5134 33.6586C56.6963 33.964 57.0172 34.3755 57.3069 34.5889C57.6277 34.8334 57.9482 35.0773 58.2833 35.2911C58.8785 35.657 59.5499 35.8708 60.1296 36.2371C60.4655 36.4509 60.801 36.7255 61.1369 36.9547C61.3079 37.0768 61.4115 37.2755 61.6253 37.3514V37.3053C61.5186 37.1684 61.4878 36.9701 61.3814 36.8168C61.2285 36.6646 61.076 36.5268 60.9231 36.3746C60.4809 35.7795 59.9312 35.2603 59.3361 34.8334C58.8477 34.4976 57.7799 34.0399 57.5815 33.4756L57.5514 33.4448C57.8866 33.414 58.2833 33.2919 58.6042 33.2003C59.1234 33.0635 59.596 33.0936 60.1296 32.9564C60.3741 32.8948 60.618 32.8189 60.8626 32.7426V32.6058C60.5879 32.3312 60.3895 31.9649 60.0998 31.7056C59.3217 31.0342 58.4667 30.3779 57.5815 29.8286C57.1085 29.5235 56.498 29.3248 55.9945 29.0659C55.8108 28.9742 55.5061 28.9284 55.3994 28.7758C55.1241 28.4406 54.9719 27.9977 54.7735 27.6006C54.3312 26.7613 53.9037 25.8307 53.5224 24.9455C53.2477 24.3504 53.0794 23.7552 52.7442 23.206C51.1723 20.6117 49.4629 19.0401 46.8382 17.4986C46.2738 17.1781 45.6024 17.0403 44.8886 16.8727L43.7442 16.8111C43.4996 16.7044 43.2558 16.4144 43.042 16.2769C42.1722 15.7276 39.9289 14.5373 39.2876 16.1093C38.8755 17.1011 39.8981 18.0776 40.2453 18.5814C40.5052 18.9323 40.8404 19.3291 41.0241 19.7258C41.1267 19.9851 41.1609 20.2601 41.2679 20.5347C41.5118 21.2061 41.741 21.9541 42.0614 22.58C42.2324 22.9005 42.412 23.2367 42.6258 23.5264C42.7479 23.694 42.9616 23.7706 43.0071 24.0453C42.7934 24.3507 42.7787 24.808 42.6566 25.19C42.1069 26.9145 42.3207 29.0508 43.0988 30.317C43.3433 30.6984 43.9197 31.538 44.7015 31.2172C45.3883 30.9426 45.2351 30.0728 45.4335 29.3097C45.4796 29.1268 45.4489 29.0046 45.5402 28.8822V28.913L46.1661 30.1795C46.6391 30.9272 47.4634 31.7056 48.1498 32.2248C48.5158 32.4995 48.8058 32.9728 49.2635 33.1404V33.0942H49.2334C49.1417 32.9574 49.0042 32.8959 48.8821 32.7892C48.6075 32.5145 48.3024 32.1786 48.0886 31.8736C47.448 31.0192 46.8836 30.0728 46.3798 29.0963C46.1353 28.6233 45.9215 28.1044 45.7238 27.6314C45.6315 27.4481 45.6315 27.1731 45.4793 27.0821C45.2501 27.4173 44.915 27.708 44.7463 28.1198C44.4563 28.7758 44.4262 29.5847 44.3195 30.4241C44.2579 30.4394 44.2853 30.4241 44.2579 30.4548C43.7702 30.3331 43.6019 29.8289 43.4189 29.4021C42.9613 28.3185 42.8847 26.579 43.2814 25.3275C43.3881 25.0071 43.8465 23.9998 43.6635 23.6947C43.5711 23.4047 43.2667 23.2371 43.0985 23.0079C42.9001 22.7179 42.687 22.3519 42.5495 22.0314C42.1835 21.1764 42.0006 20.2307 41.6035 19.376C41.4198 18.9792 41.0997 18.5671 40.8401 18.2011C40.55 17.789 40.2302 17.4989 40.0011 17.0109C39.9248 16.8433 39.8181 16.5683 39.9402 16.3849C39.9703 16.2628 40.0319 16.2174 40.1533 16.1866C40.3516 16.019 40.9167 16.2324 41.115 16.3234C41.6794 16.5525 42.1524 16.766 42.6254 17.0861C42.8392 17.2386 43.0684 17.5287 43.343 17.6053H43.6638C44.1522 17.712 44.7012 17.6361 45.1585 17.7729C45.9674 18.0328 46.6996 18.4138 47.3563 18.8263C49.3551 20.0928 51.0037 21.8936 52.1173 24.0456C52.3003 24.3965 52.3766 24.717 52.5448 25.0833C52.8657 25.8313 53.2624 26.5941 53.5822 27.327C53.903 28.0442 54.2081 28.7772 54.6657 29.3723C54.8949 29.6928 55.8102 29.8604 56.222 30.0283C56.5274 30.1651 57.0001 30.2883 57.2754 30.4559C57.7939 30.7763 58.3128 31.1426 58.8008 31.4936C59.0447 31.6762 59.8081 32.0579 59.8536 32.3623L59.8553 32.3609ZM44.2931 19.0999C44.0823 19.0981 43.8721 19.1237 43.6679 19.1762V19.207H43.698C43.8201 19.4512 44.0339 19.6191 44.1864 19.8329L44.5377 20.5655L44.5678 20.5347C44.7816 20.3822 44.8886 20.138 44.8886 19.772C44.797 19.6653 44.7819 19.5583 44.7056 19.4515C44.614 19.299 44.4156 19.2224 44.2931 19.1006V19.0999Z" fill="#00678C"/>
<path fill-rule="evenodd" clip-rule="evenodd" d="M27.9922 43.7603H33.73C34.4014 43.7603 35.0427 43.6235 35.5612 43.3789C36.431 42.9822 36.8432 42.4486 36.8432 41.7465V40.2816C36.8432 39.7172 36.3701 39.1826 35.4244 38.8167C34.936 38.6337 34.3255 38.5266 33.7304 38.5266H31.3191C30.5102 38.5266 30.1289 38.2821 30.0218 37.7485C30.0068 37.6876 30.0068 37.6264 30.0068 37.5655V36.665C30.0068 36.6188 30.0068 36.5583 30.0218 36.4974C30.1285 36.0853 30.3423 35.9782 31.0479 35.9023H36.9228V34.5742H31.3376C30.5287 34.5742 30.1015 34.6204 29.7198 34.7425C28.5446 35.1084 28.0257 35.6885 28.0257 36.7105V37.871C28.0257 38.7705 29.033 39.5342 30.7421 39.7172C30.9251 39.7326 31.1235 39.7326 31.3218 39.7326H33.3822C33.4585 39.7326 33.5344 39.7326 33.5953 39.748C34.2212 39.8089 34.4958 39.9156 34.6788 40.1441C34.8009 40.2662 34.8317 40.3732 34.8317 40.5107V41.6702C34.8317 41.807 34.74 41.991 34.5571 42.1432C34.3741 42.2954 34.0834 42.4025 33.702 42.4179C33.6257 42.4179 33.5806 42.4332 33.5036 42.4332H27.9922V43.7603ZM49.2645 41.4564C49.2645 42.8143 50.2906 43.577 52.3324 43.7302C52.5308 43.7456 52.7138 43.7603 52.9122 43.7603H58.1007V42.4332H52.8667C51.7062 42.4332 51.264 42.1432 51.264 41.4414V34.5742H49.2607V41.4568L49.2645 41.4564ZM38.1093 41.517V36.7867C38.1093 35.5811 38.9637 34.8481 40.6277 34.6197C40.8106 34.6043 40.9936 34.5889 41.1612 34.5889H44.9454C45.1438 34.5889 45.312 34.6043 45.5104 34.6197C47.1737 34.8481 48.0127 35.5808 48.0127 36.7867V41.517C48.0127 42.4934 47.6621 43.0126 46.8375 43.3639L48.7904 45.1335H46.4866L44.8996 43.6994L43.2968 43.7911H41.1605C40.7691 43.7891 40.3794 43.738 40.0007 43.6389C38.7352 43.2873 38.1093 42.6162 38.1093 41.517V41.517ZM40.2607 41.4109C40.2607 41.4718 40.2949 41.5323 40.3068 41.6093C40.4136 42.1583 40.9321 42.4637 41.7256 42.4637H43.5267L41.8788 40.968H44.1827L45.6322 42.2807C45.9075 42.1278 46.0751 41.914 46.136 41.6394C46.1514 41.5785 46.1514 41.5026 46.1514 41.441V36.9085C46.1514 36.8476 46.1514 36.7871 46.136 36.7255C46.0293 36.207 45.5108 35.9173 44.7323 35.9173H41.7259C40.8407 35.9173 40.261 36.2987 40.261 36.9085L40.2607 41.4109Z" fill="#CE8B2C"/>
</svg>
