<svg width="63" height="63" viewBox="0 0 63 63" fill="none" xmlns="http://www.w3.org/2000/svg">
<g clip-path="url(#clip0_1956_5709)">
<path d="M31.405 62.8172C30.5758 62.8172 29.7491 62.6002 29.0232 62.1791L21.4385 57.6919C20.307 57.059 20.8598 56.8342 21.2318 56.7025C22.7431 56.178 23.0479 56.0566 24.6625 55.1421C24.8304 55.0465 25.0526 55.0827 25.2257 55.186L31.0537 58.6451C31.2655 58.7614 31.5626 58.7614 31.7563 58.6451L54.4768 45.5321C54.6886 45.4107 54.8229 45.1679 54.8229 44.9173V18.6965C54.8229 18.4407 54.686 18.2005 54.469 18.0713L31.7589 4.96862C31.5497 4.8472 31.2707 4.8472 31.0588 4.96862L8.35392 18.0739C8.13434 18.2005 7.99484 18.4485 7.99484 18.6965V44.9173C7.99484 45.1679 8.13434 45.4055 8.35392 45.5244L14.5772 49.1204C17.9536 50.8099 20.0228 48.8207 20.0228 46.8212V20.9336C20.0228 20.5668 20.3173 20.28 20.6842 20.28H23.5646C23.9237 20.28 24.2233 20.5694 24.2233 20.9336V46.8212C24.2233 51.3291 21.7692 53.9125 17.4963 53.9125C16.184 53.9125 15.1481 53.9125 12.2625 52.489L6.30017 49.061C4.82767 48.211 3.91833 46.6197 3.91833 44.9173V18.6965C3.91833 16.994 4.83025 15.4027 6.30017 14.5554L29.0206 1.42687C30.4595 0.613121 32.3686 0.613121 33.7946 1.42687L56.5124 14.5554C57.9849 15.4053 58.8994 16.994 58.8994 18.6965V44.9173C58.8994 46.6197 57.9849 48.2059 56.5124 49.061L33.7946 62.1791C33.0713 62.6002 32.2472 62.8172 31.405 62.8172ZM49.7493 36.9658C49.7493 32.0575 46.4323 30.7503 39.4495 29.828C32.3944 28.8955 31.6763 28.4124 31.6763 26.7616C31.6763 25.3976 32.2833 23.5764 37.5094 23.5764C42.1775 23.5764 43.898 24.5813 44.6058 27.7278C44.6678 28.0249 44.9391 28.2419 45.2439 28.2419H48.1915C48.3749 28.2419 48.548 28.1618 48.672 28.0326C48.796 27.8931 48.8632 27.7149 48.8451 27.5263C48.3878 22.1065 44.7867 19.58 37.5094 19.58C31.0304 19.58 27.1658 22.3131 27.1658 26.8985C27.1658 31.8715 31.0098 33.2458 37.2278 33.8606C44.6678 34.5891 45.2439 35.6767 45.2439 37.1389C45.2439 39.6783 43.2057 40.7607 38.4188 40.7607C32.4073 40.7607 31.0847 39.252 30.6403 36.2605C30.5887 35.9402 30.3148 35.7051 29.9868 35.7051H27.0495C26.6853 35.7051 26.3933 35.9945 26.3933 36.3587C26.3933 40.1872 28.4755 44.7494 38.4188 44.7494C45.6211 44.752 49.7493 41.918 49.7493 36.9658Z" fill="#339933"/>
</g>
<defs>
<clipPath id="clip0_1956_5709">
<rect width="62" height="62" fill="white" transform="translate(0.410156 0.81723)"/>
</clipPath>
</defs>
</svg>
