<svg width="63" height="63" viewBox="0 0 63 63" fill="none" xmlns="http://www.w3.org/2000/svg">
<g clip-path="url(#clip0_1956_5693)">
<path d="M37.4933 31.9439C37.4933 33.4755 36.885 34.9443 35.8023 36.0275C34.7196 37.1107 33.251 37.7196 31.7195 37.7203C30.1875 37.7203 28.7183 37.1117 27.635 36.0284C26.5517 34.9451 25.9432 33.4759 25.9432 31.9439C25.9432 30.4124 26.5514 28.9436 27.6341 27.8604C28.7168 26.7772 30.1854 26.1683 31.7169 26.1676C33.2489 26.1676 34.7181 26.7762 35.8014 27.8594C36.8847 28.9427 37.4933 30.4119 37.4933 31.9439V31.9439ZM44.3339 4.32809C40.8568 4.32809 36.3075 6.8081 31.7066 11.1016C27.1083 6.83134 22.5564 4.37976 19.0818 4.37976C18.0227 4.37976 17.0591 4.62001 16.2247 5.09793C12.6726 7.14651 11.8769 13.5299 13.7111 21.5408C5.84742 23.9692 0.732422 27.8519 0.732422 31.9439C0.732422 36.0514 5.87326 39.9445 13.7602 42.3548C11.9415 50.3967 12.7527 56.7904 16.3125 58.8364C17.1392 59.3195 18.095 59.5468 19.1593 59.5468C22.6339 59.5468 27.1858 57.0668 31.7867 52.7682C36.385 57.041 40.9368 59.4926 44.4114 59.4926C45.4706 59.4926 46.4342 59.2601 47.2686 58.7822C50.8181 56.7362 51.6163 50.3528 49.7822 42.3393C57.6174 39.9316 62.7324 36.0411 62.7324 31.9439C62.7324 27.8364 57.5916 23.9433 49.7047 21.5279C51.5233 13.4938 50.7122 7.09484 47.1523 5.04626C46.3308 4.57093 45.375 4.33068 44.3313 4.32809H44.3339ZM44.321 7.14393V7.15943C44.9023 7.15943 45.3698 7.27309 45.7625 7.48751C47.483 8.47434 48.2296 12.2279 47.6483 17.0562C47.5088 18.2445 47.2815 19.4974 47.0025 20.7762C44.5225 20.1665 41.8203 19.6989 38.9761 19.3967C37.2711 17.0588 35.5015 14.9353 33.719 13.0753C37.8317 9.25193 41.6938 7.15426 44.3236 7.14651L44.321 7.14393ZM19.0818 7.19559C21.6962 7.19559 25.5763 9.28293 29.6993 13.0856C27.9272 14.9456 26.1602 17.0562 24.481 19.3941C21.6213 19.6963 18.9165 20.1639 16.4391 20.7839C16.1498 19.5181 15.9353 18.2936 15.7829 17.1156C15.1888 12.2899 15.9224 8.53893 17.6274 7.53918C18.1183 7.30668 18.6608 7.21109 19.0818 7.19818V7.19559ZM31.6937 15.0748C32.8691 16.2838 34.0445 17.6374 35.207 19.1151C34.0703 19.0634 32.9078 19.0273 31.7324 19.0273C30.5441 19.0273 29.3687 19.0531 28.2191 19.1151C29.3558 17.6374 30.5312 16.2838 31.6937 15.0722V15.0748ZM31.7324 21.8586C33.6441 21.8586 35.548 21.9464 37.4209 22.0988C38.4698 23.6023 39.4928 25.2066 40.477 26.9038C41.438 28.5572 42.3112 30.2363 43.1068 31.931C42.3112 33.6231 41.438 35.3152 40.4899 36.9685C39.5083 38.6735 38.493 40.2958 37.4416 41.7993C35.5609 41.9621 33.6544 42.0525 31.7324 42.0525C29.8208 42.0525 27.9168 41.9621 26.0439 41.8123C24.9951 40.3088 23.9721 38.7019 22.9878 37.0073C22.0268 35.3539 21.1537 33.6748 20.358 31.9801C21.1408 30.2828 22.0268 28.5882 22.9749 26.9323C23.9566 25.2273 24.9718 23.6101 26.0233 22.1066C27.9039 21.9413 29.8104 21.8534 31.7324 21.8534V21.8586ZM22.342 22.5148C21.722 23.4887 21.102 24.4858 20.5233 25.5114C19.9421 26.5189 19.3996 27.5316 18.8829 28.5443C18.1983 26.8496 17.6171 25.1601 17.1366 23.5145C18.7899 23.127 20.5337 22.7834 22.342 22.5173V22.5148ZM41.097 22.5148C42.8924 22.7808 44.6233 23.1089 46.2792 23.5145C45.8142 25.1472 45.2329 26.8263 44.5742 28.5081C44.0575 27.5006 43.515 26.4853 42.9208 25.4753C42.3396 24.4626 41.7196 23.4758 41.0996 22.5148H41.097ZM49.0098 24.2585C50.2601 24.646 51.4484 25.0774 52.5618 25.545C57.0362 27.4567 59.9295 29.9573 59.9295 31.9413C59.9166 33.9253 57.0233 36.4363 52.5489 38.3351C51.4639 38.8001 50.2756 39.2186 49.0485 39.6087C48.3252 37.1338 47.3797 34.5557 46.2068 31.9103C47.3693 29.2831 48.2993 26.7178 49.0098 24.2533V24.2585ZM14.406 24.2688C15.1242 26.7488 16.0723 29.3244 17.2477 31.9672C16.0852 34.5944 15.15 37.1597 14.4422 39.6242C13.1918 39.2367 12.0035 38.8027 10.903 38.3325C6.42867 36.4286 3.53534 33.9253 3.53534 31.9413C3.53534 29.9573 6.42867 27.4412 10.903 25.545C11.988 25.08 13.1763 24.6615 14.406 24.2688V24.2688ZM44.5742 35.3255C45.2588 37.0228 45.84 38.7148 46.3205 40.3578C44.6672 40.7634 42.9208 41.107 41.1125 41.3653C41.7325 40.3966 42.3525 39.3968 42.9338 38.3738C43.515 37.3663 44.0575 36.3382 44.5768 35.3255H44.5742ZM18.8829 35.3772C19.3996 36.3898 19.9421 37.3999 20.5363 38.4126C21.1304 39.4201 21.7375 40.4069 22.3575 41.3653C20.5621 41.1018 18.8313 40.7712 17.1753 40.3682C17.6403 38.7407 18.2242 37.0563 18.8803 35.3746L18.8829 35.3772ZM47.0258 43.0936C47.3151 44.3672 47.5424 45.5943 47.6819 46.7697C48.2761 51.5953 47.5424 55.3463 45.8374 56.3487C45.4577 56.5812 44.9643 56.6793 44.383 56.6793C41.7687 56.6793 37.8885 54.5946 33.7655 50.7893C35.5377 48.9293 37.3047 46.8213 38.9838 44.486C41.8436 44.1812 44.5483 43.711 47.0258 43.091V43.0936ZM16.4649 43.1194C18.9449 43.7239 21.6471 44.1915 24.4913 44.4938C26.1963 46.8317 27.9659 48.9552 29.7484 50.8126C25.628 54.6437 21.7608 56.7413 19.1309 56.7413C18.5626 56.7284 18.0821 56.6122 17.7023 56.4003C15.9818 55.4187 15.2353 51.6625 15.8165 46.8343C15.956 45.6459 16.1833 44.3956 16.4623 43.1194H16.4649ZM28.2449 44.7728C29.3816 44.8244 30.5441 44.8606 31.7195 44.8606C32.9078 44.8606 34.0833 44.8348 35.2328 44.7728C34.0962 46.2504 32.9208 47.6015 31.7583 48.8157C30.5828 47.6015 29.4074 46.2504 28.2449 44.7728Z" fill="#61DAFB"/>
</g>
<defs>
<clipPath id="clip0_1956_5693">
<rect width="62" height="62" fill="white" transform="translate(0.732422 0.933594)"/>
</clipPath>
</defs>
</svg>
