<svg width="63" height="63" viewBox="0 0 63 63" fill="none" xmlns="http://www.w3.org/2000/svg">
<g clip-path="url(#clip0_1956_5719)">
<path d="M3.63867 0.933594C2.02926 0.933594 0.732422 2.23043 0.732422 3.83984V60.0273C0.732422 61.6368 2.02926 62.9336 3.63867 62.9336H59.8262C61.4356 62.9336 62.7324 61.6368 62.7324 60.0273V3.83984C62.7324 2.23043 61.4356 0.933594 59.8262 0.933594H3.63867ZM48.4931 26.1211C50.0741 26.1211 51.4743 26.2167 52.6962 26.4078C53.8487 26.5805 54.9796 26.8749 56.07 27.2862V33.636C55.5466 33.274 54.9905 32.9618 54.4089 32.7034C53.8092 32.4336 53.19 32.209 52.5567 32.0318C51.357 31.6975 50.1182 31.5237 48.8728 31.5151C48.0978 31.5151 47.3926 31.5874 46.7571 31.7373C46.1907 31.8584 45.6473 32.0695 45.1477 32.3624C44.7085 32.6311 44.3727 32.954 44.1324 33.3286C43.8908 33.7061 43.765 34.1462 43.7708 34.5944C43.7708 35.1008 43.9077 35.558 44.1738 35.961C44.4424 36.364 44.8248 36.7463 45.3182 37.108C45.8116 37.4697 46.4109 37.821 47.1162 38.1672C47.8214 38.5159 48.6197 38.875 49.5083 39.2418C50.7225 39.7508 51.8127 40.2933 52.7788 40.8642C53.745 41.4377 54.5743 42.0861 55.2666 42.8094C55.9589 43.5302 56.4859 44.3543 56.8528 45.2817C57.2196 46.2091 57.4056 47.2863 57.4056 48.5186C57.4056 50.2158 57.0827 51.6444 56.442 52.7966C55.816 53.9329 54.9177 54.896 53.8277 55.5995C52.6527 56.3445 51.3505 56.8665 49.9863 57.1392C48.5241 57.4492 46.9818 57.6042 45.3621 57.6042C43.7679 57.6112 42.1766 57.4693 40.6088 57.1805C39.2523 56.9459 37.9368 56.517 36.7028 55.9069V49.1128C39.0375 51.0997 41.9993 52.1976 45.065 52.2128C45.9253 52.2128 46.677 52.1353 47.3177 51.9803C47.9609 51.8253 48.4957 51.6083 48.9271 51.3344C49.3559 51.0554 49.6763 50.7299 49.8907 50.3528C50.1277 49.9136 50.2355 49.4164 50.2016 48.9185C50.1678 48.4207 49.9937 47.9426 49.6995 47.5395C49.3157 47.0316 48.8462 46.5945 48.3123 46.2478C47.65 45.8089 46.9528 45.4252 46.2275 45.1008C45.3679 44.7083 44.5006 44.3327 43.6261 43.9745C41.2546 42.9851 39.4876 41.7735 38.3225 40.3449C37.16 38.9163 36.5762 37.1881 36.5762 35.1653C36.5762 33.5792 36.8939 32.2178 37.5294 31.0785C38.1649 29.9393 39.0278 29.0015 40.1231 28.2653C41.2816 27.501 42.5678 26.9506 43.9206 26.6403C45.4189 26.2871 46.9538 26.1128 48.4931 26.1211V26.1211ZM9.45117 26.6068H34.1556V32.2023H25.2896V57.1211H18.2707V32.2023H9.45117V26.6068Z" fill="#3178C6"/>
</g>
<defs>
<clipPath id="clip0_1956_5719">
<rect width="62" height="62" fill="white" transform="translate(0.732422 0.933594)"/>
</clipPath>
</defs>
</svg>
