<svg width="63" height="63" viewBox="0 0 63 63" fill="none" xmlns="http://www.w3.org/2000/svg">
<g clip-path="url(#clip0_1956_5785)">
<path d="M57.9182 43.3017V14.9648L33.2304 0.796371V11.6903L42.9156 17.2318C43.2954 17.4207 43.2954 17.9874 42.9156 18.1763L31.3946 24.7883C31.0781 24.9772 30.635 24.9772 30.3185 24.7883L18.7975 18.1134C18.4177 17.9245 18.4177 17.3577 18.7975 17.1688L28.4827 11.6274V0.733398L3.79486 14.9019V43.3017V43.1758V43.3017L13.2902 37.8862V26.7404C13.2902 26.3626 13.7333 26.0477 14.1131 26.2996L25.6341 32.9115C25.9506 33.1004 26.2038 33.4783 26.2038 33.8561V47.08C26.2038 47.4578 25.7607 47.7727 25.3809 47.5208L15.6957 41.9793L6.20034 47.3948L30.8882 61.5633L55.5761 47.3948L46.0807 41.9793L36.3955 47.5208C36.079 47.7097 35.5726 47.4578 35.5726 47.08V33.8561C35.5726 33.4783 35.7625 33.1004 36.1423 32.9115L47.6633 26.2996C47.9798 26.1107 48.4862 26.3626 48.4862 26.7404V37.8862L57.9182 43.3017Z" fill="#CCCCCC"/>
<path d="M30.825 61.6263L55.5128 47.4578L46.0175 42.0423L36.3322 47.5837C36.0157 47.7726 35.5093 47.5208 35.5093 47.1429V33.9191C35.5093 33.5412 35.6992 33.1634 36.079 32.9745L47.6 26.3625C47.9165 26.1736 48.423 26.4255 48.423 26.8033V37.9492L57.9183 43.3647V14.9648L30.825 30.5186V61.6263Z" fill="#A6A6A6"/>
<path d="M33.1671 0.733398V11.6274L42.8523 17.1688C43.2321 17.3577 43.2321 17.9245 42.8523 18.1134L31.3313 24.7253C31.0148 24.9142 30.5717 24.9142 30.2552 24.7253L18.7975 18.1134C18.4177 17.9245 18.4177 17.3577 18.7975 17.1688L28.4827 11.6274V0.733398L3.79486 14.9019L30.8882 30.4557L57.9816 14.9019L33.1671 0.733398Z" fill="white"/>
<path d="M25.2543 47.5208L15.5691 41.9793L6.07375 47.3948L30.7616 61.5633V30.4557L3.73157 14.9648V43.3647V43.2387V43.3647L13.2269 37.9492V26.8033C13.2269 26.4255 13.67 26.1107 14.0498 26.3625L25.5708 32.9745C25.8873 33.1634 26.1405 33.5412 26.1405 33.9191V47.1429C26.0772 47.4578 25.6341 47.7097 25.2543 47.5208Z" fill="#CCCCCC"/>
</g>
<defs>
<clipPath id="clip0_1956_5785">
<rect width="62" height="62" fill="white" transform="translate(0.410156 0.733398)"/>
</clipPath>
</defs>
</svg>
