<svg width="44" height="44" viewBox="0 0 44 44" fill="none" xmlns="http://www.w3.org/2000/svg">
<path d="M29.6097 39.1038C29.6097 39.1038 20.9742 32.6131 31.9238 18.1642C31.9238 18.1642 33.6735 16.6402 30.3435 16.358C27.0134 16.0758 21.5951 19.4623 21.2564 27.1947C20.9178 34.9271 24.53 41.813 28.368 41.1357C28.368 41.1357 32.4239 40.3314 31.2747 39.8093C30.6539 39.5271 30.3717 39.64 29.6097 39.1038Z" fill="#FFC300"/>
<path d="M19.394 22.6222C19.394 22.6222 11.9438 24.9363 13.0726 33.9104C13.0726 33.9104 13.5524 36.8736 9.91192 38.4257C9.91192 38.4257 9.51684 38.7079 9.91192 38.9901C10.307 39.2723 14.1168 38.0024 15.6125 39.3288C16.9275 40.4948 21.6517 42.7717 23.74 40.7962C23.74 40.7962 24.5302 40.0625 22.8369 39.7239C21.1437 39.3852 12.2824 36.9583 18.7732 26.7989C18.7732 26.7989 22.8934 22.34 19.394 22.6222Z" fill="#FFC300"/>
<path d="M36.2983 27.1105C36.2983 27.1105 35.1694 26.8283 35.1694 24.232C35.1694 21.6357 35.4516 21.3535 35.9596 21.3535C36.4676 21.3535 37.032 22.2001 36.9755 24.232C36.9191 26.2639 37.1449 27.0541 36.2983 27.1105Z" fill="#FFC300"/>
<path d="M33.4761 28.2954C33.4761 28.2954 32.4037 28.4083 32.4602 24.7396C32.5166 21.0709 33.6454 21.4096 33.6454 22.7642C33.6454 24.1187 33.9276 28.2954 33.4761 28.2954Z" fill="#FFC300"/>
<path d="M27.5497 19.7502C27.5497 19.7502 33.5889 13.203 33.7583 9.81656C33.9276 6.43009 33.081 1.85837 25.9694 5.41416C18.8578 8.96994 12.4235 20.8226 23.0345 23.8139" stroke="#FFC300" stroke-width="3.29" stroke-miterlimit="10"/>
<path d="M18.1587 11.6776C18.1587 11.6776 14.1452 6.59335 9.29124 9.35897C4.43731 12.1246 9.06547 21.776 18.1525 24.203" stroke="#FFC300" stroke-width="3.29" stroke-miterlimit="10"/>
</svg>
