<svg width="10" height="16" viewBox="0 0 10 16" fill="none" xmlns="http://www.w3.org/2000/svg">
<path d="M5.53218 15.0473L9.74711 10.8323C10.0407 10.5387 10.0407 10.0677 9.74711 9.77402C9.45347 9.48038 8.98243 9.48038 8.68879 9.77402L5.75241 12.7104V1.48487C5.75241 1.06888 5.41595 0.732422 4.99997 0.732422C4.58398 0.732422 4.24752 1.06888 4.24752 1.48487V12.7043L1.31114 9.7679C1.0175 9.47427 0.546459 9.47427 0.252821 9.7679C-0.0408167 10.0615 -0.0408167 10.5326 0.252821 10.8262L4.46775 15.0411C4.61457 15.188 4.80421 15.2614 4.99997 15.2614C5.19572 15.2614 5.38537 15.1941 5.53218 15.0473Z" fill="#F4F4F4"/>
</svg>
