<svg width="25" height="24" viewBox="0 0 25 24" fill="none" xmlns="http://www.w3.org/2000/svg">
<path d="M13.4 5.99961C13.4 5.50255 12.9971 5.09961 12.5 5.09961C12.0029 5.09961 11.6 5.50255 11.6 5.99961V9.59961C11.6 10.0967 12.0029 10.4996 12.5 10.4996C12.9971 10.4996 13.4 10.0967 13.4 9.59961V5.99961Z" fill="#F4F4F4"/>
<path fill-rule="evenodd" clip-rule="evenodd" d="M2.89999 9.6C2.89999 4.29806 7.19806 0 12.5 0C17.8019 0 22.1 4.29806 22.1 9.6V14.4C22.1 19.702 17.8019 24 12.5 24C7.19806 24 2.89999 19.702 2.89999 14.4V9.6ZM20.3 9.6V14.4C20.3 18.7079 16.8079 22.2 12.5 22.2C8.19218 22.2 4.69999 18.7079 4.69999 14.4V9.6C4.69999 5.29219 8.19218 1.8 12.5 1.8C16.8079 1.8 20.3 5.29219 20.3 9.6Z" fill="#F4F4F4"/>
</svg>
